<?xml version="1.0" encoding="utf-8"?>
<!-- Generator: Adobe Illustrator 16.0.0, SVG Export Plug-In . SVG Version: 6.00 Build 0)  -->
<!DOCTYPE svg PUBLIC "-//W3C//DTD SVG 1.1//EN" "http://www.w3.org/Graphics/SVG/1.1/DTD/svg11.dtd">
<svg version="1.1" id="Layer_1" xmlns="http://www.w3.org/2000/svg" xmlns:xlink="http://www.w3.org/1999/xlink" x="0px" y="0px"
	 width="376.4px" height="20px" viewBox="0 0 376.4 20" enable-background="new 0 0 376.4 20" xml:space="preserve">
<g>
	<path fill="#FFFFFF" d="M374,11.6c0,0.4-0.1,0.9-0.3,1.3h-0.2c0-0.6,0-1.1-0.1-1.4c0,0,0-0.3-0.1-0.8c-0.1-0.3-0.1-0.9-0.3-1.5
		c0-0.2-0.1-0.4-0.1-0.6c0-0.1,0-0.3,0.1-0.5c0.1-0.1,0.3-0.3,0.5-0.6c0,0.5,0.1,1.2,0.2,2.2C374,10.4,374,11.1,374,11.6L374,11.6z"
		/>
	<path fill="#FFFFFF" d="M374.4,4.6c0,0.2,0,0.3,0,0.3c0,0.1-0.1,0.2-0.2,0.2l-1.6,0.9c0-0.2,0-0.3,0.1-0.4c0-0.1,0.1-0.2,0.3-0.2
		L374.4,4.6L374.4,4.6z"/>
	<path fill="#FFFFFF" d="M371.9,7.3c-0.3,0.3-0.4,0.6-0.4,0.9c0,0.2,0,0.5,0.1,0.9l0.2,1.2c0.1,0.5,0.1,0.8,0.1,1.1
		c0,0.5-0.1,1-0.4,1.3c-0.2,0.3-0.5,0.5-0.9,0.5h-0.4V12h0.4c0.2,0,0.4,0,0.5-0.1c0.1-0.1,0.1-0.2,0.1-0.4c0-0.3,0-0.7-0.1-1.2
		l-0.3-1.6c-0.1-0.5-0.1-0.9-0.2-1.2c0-0.2,0-0.4,0.2-0.6c0.1-0.1,0.2-0.3,0.4-0.4c0.1,0.2,0.2,0.4,0.3,0.5
		C371.6,7,371.7,7.2,371.9,7.3L371.9,7.3z"/>
	<path fill="#FFFFFF" d="M370.9,6c-0.2,0.1-0.4,0.1-0.6,0c0-0.1-0.1-0.1,0-0.2c0.1,0,0.2-0.1,0.4-0.1c0.3-0.1,0.6-0.3,0.8-0.5
		c0-0.1-0.1-0.2-0.1-0.3c0-0.1-0.1-0.1-0.2-0.1c-0.1,0-0.2,0-0.4,0.1l0.2-0.6c0.2-0.1,0.3-0.1,0.4-0.1c0.1,0,0.3,0.1,0.4,0.2
		c0.1,0.1,0.2,0.2,0.2,0.2c0,0,0,0.1,0,0.3C372.1,5.3,371.7,5.7,370.9,6L370.9,6z"/>
	<path fill="#FFFFFF" d="M370.4,13.2h-1.3c-1,0-1.5-0.3-1.5-0.9c0-0.2,0.1-0.5,0.2-0.9c-0.5,0.1-0.9,0.2-1.2,0.4
		c-0.3,0.1-0.6,0.4-1.1,0.7c-0.6,0.4-1,0.7-1.3,0.7h-0.5V12h0.5c0.5,0,1.2-0.2,2.1-0.6c-0.4-0.2-0.8-0.3-1.2-0.3
		c-0.3,0-0.6,0.1-1,0.2c0.1-0.5,0.2-0.8,0.4-1c0.2-0.3,0.5-0.5,0.9-0.5c0.3,0,0.6,0.1,1,0.3c0.5,0.2,0.9,0.3,1.1,0.3
		s0.5,0.1,0.9,0.1c0.1,0,0.2,0,0.4,0s0.3,0,0.4,0l-0.1,1l-0.6,0l-0.3,0c0.1,0.2,0.2,0.4,0.4,0.5c0.1,0.1,0.3,0.1,0.6,0.1h1.1V13.2
		L370.4,13.2z"/>
	<path fill="#FFFFFF" d="M368,6.6c0,0.2,0,0.3,0,0.3c0,0.1-0.1,0.2-0.2,0.2l-1.6,0.9c0-0.2,0-0.3,0.1-0.4s0.1-0.1,0.3-0.2L368,6.6
		L368,6.6z"/>
	<path fill="#FFFFFF" d="M363.8,13.2H363c-0.2,0-0.3,0-0.4-0.1c-0.1-0.1-0.2-0.1-0.3-0.3c-0.1,0.5-0.3,0.7-0.7,0.7
		c-0.4,0-0.9-0.4-1.5-1.1c-0.1,0.3-0.3,0.5-0.4,0.6c-0.1,0.1-0.3,0.2-0.4,0.2h-0.4V12h0.4c0.4,0,0.8-0.3,1.1-0.9
		c0.1-0.2,0.2-0.4,0.3-0.5c0.1-0.2,0.3-0.2,0.5-0.2c0.2,0,0.4,0.2,0.6,0.5c0.1,0.2,0.3,0.4,0.4,0.6c0.2,0.3,0.5,0.4,0.8,0.4h0.8
		V13.2L363.8,13.2z M361.6,12c0-0.3,0-0.6-0.1-0.8c-0.1-0.2-0.2-0.3-0.3-0.3c-0.1,0-0.2,0.1-0.3,0.3c0,0.1-0.1,0.2-0.2,0.4
		c0.2,0.2,0.4,0.4,0.6,0.5c0.1,0.1,0.2,0.1,0.2,0.1C361.5,12.3,361.6,12.2,361.6,12L361.6,12z"/>
	<path fill="#FFFFFF" d="M361,8c-0.2,0.1-0.4,0.1-0.6,0c0-0.1-0.1-0.1,0-0.2c0.1,0,0.2-0.1,0.4-0.1c0.3-0.1,0.6-0.3,0.8-0.5
		c0-0.1-0.1-0.2-0.1-0.3c0-0.1-0.1-0.1-0.2-0.1c-0.1,0-0.2,0-0.4,0.1l0.2-0.6c0.2-0.1,0.3-0.1,0.4-0.1c0.1,0,0.3,0,0.4,0.1
		c0.1,0.1,0.2,0.2,0.2,0.2c0,0,0,0.1,0,0.3C362.2,7.3,361.8,7.7,361,8L361,8z"/>
	<path fill="#FFFFFF" d="M359,13.2h-0.7c-0.6,0-1-0.4-1.2-1.3c-0.4,0.8-0.9,1.2-1.7,1.2c-0.6,0-1-0.2-1-0.6c0-0.1,0.1-0.3,0.2-0.7
		c0-0.1,0.1-0.3,0.2-0.6l0.2,0c0.1,0.2,0.2,0.4,0.3,0.5s0.4,0.1,0.7,0.1c0.3,0,0.6,0,0.7-0.1c0.2-0.1,0.3-0.3,0.3-0.5
		c0-0.2,0-0.5-0.1-1c-0.1-0.4-0.1-0.8-0.1-1c0-0.2,0.1-0.4,0.2-0.6c0.1-0.1,0.2-0.3,0.4-0.5c0,0.5,0.1,1.2,0.3,2l0.2,1
		c0.1,0.6,0.3,0.9,0.6,0.9h0.7V13.2L359,13.2z"/>
	<path fill="#FFFFFF" d="M357.2,7l0,0.6c-0.1,0-0.2-0.1-0.5-0.3c-0.2,0.2-0.3,0.4-0.5,0.6c-0.2,0.2-0.4,0.2-0.6,0.3
		c-0.1,0-0.2,0-0.3-0.1c0.2-0.1,0.4-0.2,0.6-0.4c0.1-0.1,0.3-0.3,0.6-0.5c-0.2-0.2-0.3-0.3-0.3-0.5c0-0.2,0.1-0.4,0.2-0.6
		c0.1-0.2,0.3-0.3,0.5-0.3c0.1,0,0.2,0,0.3,0.1c0.1,0.1,0.1,0.2,0.1,0.4c0,0.2-0.1,0.4-0.2,0.7C357.1,6.9,357.2,7,357.2,7L357.2,7z
		 M356.8,6.5c0-0.1,0-0.2-0.1-0.2c-0.1-0.1-0.1-0.1-0.2-0.1c-0.1,0-0.1,0-0.1,0.1c0,0.1,0,0.1,0.1,0.2c0.1,0.1,0.2,0.1,0.3,0.2
		C356.8,6.7,356.8,6.6,356.8,6.5C356.8,6.5,356.8,6.5,356.8,6.5L356.8,6.5z"/>
	<path fill="#FFFFFF" d="M353.5,7.3c-0.3,0.3-0.4,0.6-0.4,0.9c0,0.2,0,0.5,0.1,0.9l0.2,1.2c0.1,0.5,0.1,0.8,0.1,1.1
		c0,0.5-0.1,1-0.4,1.3c-0.2,0.3-0.5,0.5-0.9,0.5h-0.4V12h0.4c0.2,0,0.4,0,0.5-0.1c0.1-0.1,0.1-0.2,0.1-0.4c0-0.3,0-0.7-0.1-1.2
		l-0.3-1.6c-0.1-0.5-0.1-0.9-0.2-1.2c0-0.2,0-0.4,0.2-0.6c0.1-0.1,0.2-0.3,0.4-0.4c0.1,0.2,0.2,0.4,0.3,0.5
		C353.3,7,353.4,7.2,353.5,7.3L353.5,7.3z"/>
	<path fill="#FFFFFF" d="M354,14.3c0,0.2,0,0.3,0,0.4c0,0.1-0.1,0.1-0.2,0.2l-1.6,0.9c0-0.2,0-0.3,0.1-0.4c0-0.1,0.1-0.1,0.3-0.2
		L354,14.3L354,14.3z"/>
	<path fill="#FFFFFF" d="M352.2,13.2h-0.8c-0.5,0-0.9-0.4-1-1.3c-0.2,0.9-0.6,1.3-1,1.3H349V12h0.4c0.5,0,0.7-0.5,0.8-1.4
		c0-0.2,0-0.5-0.1-1L350,8.2c0-0.3,0-0.6,0-0.9c0-0.2,0-0.3,0-0.3c0-0.1,0.1-0.2,0.2-0.4c0.2,0.2,0.3,0.4,0.3,0.5
		c0.1,0.2,0.1,0.4,0.1,0.8c0,1.5,0.1,2.6,0.3,3.3c0.1,0.5,0.3,0.7,0.5,0.7h0.8V13.2L352.2,13.2z"/>
	<path fill="#FFFFFF" d="M350.5,4l-0.2,0.2c-0.1-0.4-0.2-0.6-0.3-0.7c-0.1-0.2-0.3-0.4-0.5-0.6l-0.1-0.8c0.4,0.2,0.7,0.5,0.8,0.8
		C350.3,3,350.4,3.4,350.5,4L350.5,4z M351.4,4.7c0,0.2,0,0.4-0.1,0.6c-0.1,0.2-0.2,0.3-0.4,0.3c-0.1,0-0.2,0-0.4-0.1
		c-0.2,0.4-0.4,0.6-0.6,0.6c-0.1,0-0.2-0.1-0.3-0.2c-0.1-0.1-0.1-0.3-0.1-0.4c0-0.1,0-0.3,0.1-0.6l0.1,0c0,0.4,0.1,0.6,0.3,0.6
		c0.3,0,0.4-0.3,0.4-0.9l0.1,0c0.1,0.4,0.2,0.5,0.4,0.5c0.1,0,0.2-0.1,0.3-0.2c0.1-0.2,0.1-0.3,0.1-0.5c0-0.1,0-0.1,0-0.1l0.1,0
		C351.4,4.3,351.4,4.5,351.4,4.7L351.4,4.7z"/>
	<path fill="#FFFFFF" d="M349.4,13.2h-0.8c-0.4,0-0.6-0.2-0.8-0.5c-0.1-0.2-0.1-0.5-0.2-0.9c-0.4,0.6-0.8,0.9-1,0.9
		c-0.2,0-0.3,0-0.5-0.1c-0.2-0.1-0.3-0.2-0.3-0.4c0-0.2,0.1-0.5,0.3-0.9c0.1-0.2,0.3-0.5,0.5-0.6c0.1-0.1,0.3-0.2,0.7-0.4
		c0-0.1,0-0.2-0.1-0.3c0-0.1-0.1-0.2-0.1-0.3c0-0.1,0-0.1,0.1-0.3c0.1-0.2,0.3-0.3,0.5-0.5c0,0,0.1,0.7,0.3,2c0,0.2,0.1,0.5,0.1,0.8
		c0.1,0.3,0.2,0.4,0.4,0.4h0.8V13.2L349.4,13.2z M347.6,11.3c0,0,0-0.2-0.1-0.4c0-0.1,0-0.2-0.1-0.4c-0.6,0.3-0.9,0.6-0.9,0.7
		c0,0.1,0.1,0.1,0.2,0.1c0.1,0,0.3,0.1,0.6,0.1C347.5,11.5,347.6,11.4,347.6,11.3L347.6,11.3z"/>
	<path fill="#FFFFFF" d="M348.4,14.3c0,0.2,0,0.3,0,0.4c0,0.1-0.1,0.1-0.2,0.2l-1.6,0.9c0-0.2,0-0.3,0.1-0.4c0-0.1,0.1-0.1,0.3-0.2
		L348.4,14.3L348.4,14.3z"/>
	<path fill="#FFFFFF" d="M343.7,13c0,0.7-0.2,1.3-0.5,1.9c-0.4,0.7-0.9,1-1.5,1c-0.3,0-0.5-0.1-0.8-0.2c-0.1-0.1-0.4-0.2-0.7-0.4
		l0.1-0.2c0.1,0,0.3,0.1,0.4,0.1c0.5,0,1-0.2,1.6-0.7c0.6-0.5,0.9-1,0.9-1.5c0-0.3-0.2-0.5-0.5-0.8c-0.3-0.3-0.5-0.5-0.5-0.6
		c0-0.1,0-0.3,0.1-0.6l0.2-0.7C343.3,11.2,343.7,12,343.7,13L343.7,13z"/>
	<path fill="#FFFFFF" d="M343,6.6c0,0.2,0,0.3,0,0.3c0,0.1-0.1,0.2-0.2,0.2L341,8.1c0-0.2,0-0.3,0.1-0.4c0-0.1,0.1-0.1,0.3-0.2
		L343,6.6L343,6.6z"/>
	<path fill="#FFFFFF" d="M339.7,10.5c0,0.2-0.1,0.5-0.2,0.9c-0.1,0.4-0.2,0.6-0.3,0.7c-0.3,0.4-0.9,0.7-2,0.9
		c-0.8,0.2-1.6,0.3-2.2,0.3c-0.7,0-1.3-0.1-1.8-0.3c-0.6-0.3-0.9-0.8-0.9-1.4c0-0.5,0.2-1,0.7-1.6l0.1,0.1c-0.2,0.3-0.3,0.6-0.3,0.7
		c0,0.4,0.3,0.8,0.8,0.9c0.4,0.1,0.8,0.2,1.4,0.2c0.9,0,1.8-0.1,2.7-0.3c0.9-0.2,1.4-0.5,1.4-0.7c0-0.1-0.1-0.2-0.3-0.4
		c-0.1-0.1-0.1-0.2-0.1-0.3c0-0.1,0.1-0.5,0.4-1.3C339.5,9.5,339.7,10,339.7,10.5L339.7,10.5z M337,14.5l-0.4,0.7l-0.7-0.6l0.5-0.8
		L337,14.5L337,14.5z"/>
	<path fill="#FFFFFF" d="M337.4,16c0,0.2,0,0.3,0,0.4c0,0.1-0.1,0.1-0.2,0.2l-1.6,0.9c0-0.2,0-0.3,0.1-0.4c0-0.1,0.1-0.1,0.3-0.2
		L337.4,16L337.4,16z"/>
	<path fill="#FFFFFF" d="M337,6.7c0,0.3-0.1,0.5-0.2,0.7c-0.1,0.2-0.3,0.3-0.4,0.3c-0.1,0-0.2,0-0.4-0.1c-0.1,0.3-0.3,0.5-0.6,0.5
		c-0.3,0-0.4-0.2-0.4-0.6c0-0.1,0-0.3,0.1-0.6l0.1,0c0,0.4,0.1,0.6,0.2,0.6c0.2,0,0.3-0.1,0.4-0.4c0.1-0.2,0.1-0.4,0.1-0.6l0.1,0
		c0.1,0.4,0.2,0.6,0.3,0.6c0.1,0,0.2-0.1,0.2-0.2c0.1-0.2,0.1-0.4,0.1-0.6l0.1-0.1C336.9,6.4,337,6.6,337,6.7L337,6.7z"/>
	<path fill="#FFFFFF" d="M329.7,11.6c0,0.4-0.1,0.9-0.3,1.3h-0.2c0-0.6,0-1.1-0.1-1.4c0,0,0-0.3-0.1-0.8c-0.1-0.3-0.2-0.9-0.3-1.5
		c0-0.2-0.1-0.4-0.1-0.6c0-0.1,0-0.3,0.1-0.5c0.1-0.1,0.3-0.3,0.5-0.6c0,0.5,0.1,1.2,0.2,2.2C329.7,10.4,329.7,11.1,329.7,11.6
		L329.7,11.6z"/>
	<path fill="#FFFFFF" d="M327.6,7.3c-0.3,0.3-0.4,0.6-0.4,0.9c0,0.2,0,0.5,0.1,0.9l0.2,1.2c0.1,0.5,0.1,0.8,0.1,1.1
		c0,0.5-0.1,1-0.4,1.3c-0.2,0.3-0.5,0.5-0.9,0.5h-0.4V12h0.4c0.2,0,0.4,0,0.5-0.1c0.1-0.1,0.1-0.2,0.1-0.4c0-0.3,0-0.7-0.1-1.2
		l-0.3-1.6c-0.1-0.5-0.1-0.9-0.2-1.2c0-0.2,0-0.4,0.2-0.6c0.1-0.1,0.2-0.3,0.4-0.4c0.1,0.2,0.2,0.4,0.3,0.5
		C327.3,7,327.5,7.2,327.6,7.3L327.6,7.3z"/>
	<path fill="#FFFFFF" d="M326.6,6c-0.2,0.1-0.4,0.1-0.6,0c0-0.1,0-0.1,0-0.2c0.1,0,0.2-0.1,0.4-0.1c0.3-0.1,0.6-0.3,0.8-0.5
		c0-0.1-0.1-0.2-0.1-0.3c0-0.1-0.1-0.1-0.2-0.1c-0.1,0-0.2,0-0.4,0.1l0.2-0.6c0.2-0.1,0.3-0.1,0.4-0.1c0.1,0,0.3,0.1,0.4,0.2
		c0.1,0.1,0.2,0.2,0.2,0.2c0,0,0,0.1,0,0.3C327.8,5.3,327.4,5.7,326.6,6L326.6,6z"/>
	<path fill="#FFFFFF" d="M326.3,13.2h-0.8c-0.2,0-0.4-0.1-0.7-0.4c-0.2-0.2-0.4-0.4-0.6-0.6c-0.2,0.2-0.4,0.4-0.6,0.6
		c-0.3,0.3-0.5,0.4-0.7,0.4h-0.4V12h0.4c0.2,0,0.3,0,0.5-0.1c0.1,0,0.2-0.1,0.3-0.2l-0.3-0.2c-0.1-0.1-0.3-0.1-0.5-0.2
		c0.2-1,0.7-1.5,1.5-1.5c0.4,0,0.7,0.1,0.9,0.3c0.3,0.2,0.4,0.5,0.4,0.8c0,0.2-0.1,0.4-0.2,0.5c-0.1,0.1-0.3,0.2-0.5,0.4l0.2,0.1
		c0.1,0,0.2,0.1,0.3,0.1h0.8V13.2L326.3,13.2z"/>
	<path fill="#FFFFFF" d="M325.2,6.6c0,0.2,0,0.3,0,0.3c0,0.1-0.1,0.2-0.2,0.2l-1.6,0.9c0-0.2,0-0.3,0.1-0.4s0.1-0.1,0.3-0.2
		L325.2,6.6L325.2,6.6z"/>
	<path fill="#FFFFFF" d="M322.9,13.2h-0.8c-0.7,0-1.1-0.6-1.1-1.9c0-0.7,0-1.2-0.1-1.6c0-0.1-0.1-0.3-0.2-0.6
		c-0.1-0.3-0.1-0.4-0.1-0.6c0-0.2,0.1-0.4,0.2-0.6c0.1-0.1,0.2-0.2,0.4-0.4l0.1,0.5c0.2,1.1,0.3,2.2,0.3,3.1c0,0.3,0,0.5,0.2,0.6
		c0.1,0.1,0.2,0.2,0.3,0.2h0.8V13.2L322.9,13.2z"/>
	<path fill="#FFFFFF" d="M319.7,7.3c-0.3,0.3-0.4,0.6-0.4,0.9c0,0.2,0,0.5,0.1,0.9l0.2,1.2c0.1,0.5,0.1,0.8,0.1,1.1
		c0,0.5-0.1,1-0.4,1.3c-0.2,0.3-0.5,0.5-0.9,0.5H318V12h0.4c0.2,0,0.4,0,0.5-0.1c0.1-0.1,0.1-0.2,0.1-0.4c0-0.3,0-0.7-0.1-1.2
		l-0.3-1.6c-0.1-0.5-0.1-0.9-0.1-1.2c0-0.2,0-0.4,0.2-0.6c0.1-0.1,0.2-0.3,0.4-0.4c0.1,0.2,0.2,0.4,0.3,0.5
		C319.4,7,319.5,7.2,319.7,7.3L319.7,7.3z"/>
	<path fill="#FFFFFF" d="M320,4.6c0,0.2,0,0.3,0,0.3c0,0.1-0.1,0.2-0.2,0.2l-1.6,0.9c0-0.2,0-0.3,0.1-0.4c0-0.1,0.1-0.2,0.3-0.2
		L320,4.6L320,4.6z"/>
	<path fill="#FFFFFF" d="M318,13.2h-0.8c-0.2,0-0.3,0-0.4-0.1c-0.1-0.1-0.2-0.1-0.3-0.3c-0.1,0.5-0.3,0.7-0.7,0.7
		c-0.4,0-0.9-0.4-1.5-1.1c-0.1,0.3-0.3,0.5-0.4,0.6c-0.1,0.1-0.3,0.2-0.4,0.2h-0.4V12h0.4c0.4,0,0.8-0.3,1.1-0.9
		c0.1-0.2,0.2-0.4,0.3-0.5c0.1-0.2,0.3-0.2,0.5-0.2c0.2,0,0.4,0.2,0.6,0.5c0.1,0.2,0.3,0.4,0.5,0.6c0.2,0.3,0.5,0.4,0.8,0.4h0.8
		V13.2L318,13.2z M315.7,12c0-0.3,0-0.6-0.1-0.8c-0.1-0.2-0.2-0.3-0.3-0.3c-0.1,0-0.2,0.1-0.3,0.3c0,0.1-0.1,0.2-0.2,0.4
		c0.2,0.2,0.4,0.4,0.6,0.5c0.1,0.1,0.2,0.1,0.2,0.1C315.7,12.3,315.7,12.2,315.7,12L315.7,12z"/>
	<path fill="#FFFFFF" d="M316.6,14.3c0,0.2,0,0.3,0,0.4c0,0.1-0.1,0.1-0.2,0.2l-1.6,0.9c0-0.2,0-0.3,0.1-0.4c0-0.1,0.1-0.1,0.3-0.2
		L316.6,14.3L316.6,14.3z"/>
	<path fill="#FFFFFF" d="M313.3,13.2h-0.8c-0.4,0-0.6-0.2-0.8-0.7c-0.2,0.5-0.5,0.7-0.8,0.7h-0.5V12h0.5c0.3,0,0.5,0,0.7-0.1
		c0.2-0.1,0.3-0.3,0.5-0.5l0,0c0.1,0.4,0.2,0.6,0.4,0.6h0.8V13.2L313.3,13.2z M312.9,14.2l-0.5,0.8l-0.7-0.5l-0.3,0.6l-0.8-0.6
		l0.4-0.7l0.7,0.5l0.4-0.7L312.9,14.2L312.9,14.2z"/>
	<path fill="#FFFFFF" d="M311.5,8c-0.2,0.1-0.4,0.1-0.6,0c0-0.1,0-0.1,0-0.2c0.1,0,0.2-0.1,0.4-0.1c0.3-0.1,0.6-0.3,0.8-0.5
		c0-0.1-0.1-0.2-0.1-0.3c0-0.1-0.1-0.1-0.2-0.1c-0.1,0-0.2,0-0.4,0.1l0.2-0.6c0.2-0.1,0.3-0.1,0.4-0.1c0.1,0,0.3,0,0.4,0.1
		c0.1,0.1,0.2,0.2,0.2,0.2c0,0,0,0.1,0,0.3C312.6,7.3,312.2,7.7,311.5,8L311.5,8z"/>
	<path fill="#FFFFFF" d="M308.5,10.6l-0.4,0.8l-0.7-0.6l0.4-0.7L308.5,10.6L308.5,10.6z M310.9,13.2H310c-0.1,0.5-0.2,1-0.4,1.6
		c-0.4,0.9-1.2,1.4-2.5,1.4c-0.5,0-0.9-0.1-1.2-0.3c-0.4-0.3-0.5-0.6-0.6-1.1c0-0.3,0.1-0.6,0.2-0.9c0.1-0.3,0.4-0.8,0.7-1.2
		l0.2,0.1c-0.3,0.5-0.5,0.9-0.5,1.1c0,0.4,0.2,0.7,0.5,0.9c0.3,0.2,0.6,0.3,1.1,0.3c0.5,0,0.9-0.1,1.3-0.2c0.5-0.2,0.7-0.5,0.7-1
		c0-0.3-0.1-0.5-0.2-0.8c-0.2-0.3-0.2-0.5-0.3-0.6c0-0.1,0.1-0.3,0.3-0.6c0.1-0.1,0.1-0.2,0.3-0.5c0.1,0.1,0.1,0.2,0.2,0.3
		c0.1,0.1,0.2,0.2,0.3,0.3c0,0,0.1,0,0.2,0h0.7V13.2L310.9,13.2z"/>
	<path fill="#FFFFFF" d="M308.8,6.6c0,0.2,0,0.3,0,0.3c0,0.1-0.1,0.2-0.2,0.2l-1.6,0.9c0-0.2,0-0.3,0.1-0.4c0-0.1,0.1-0.1,0.3-0.2
		L308.8,6.6L308.8,6.6z"/>
	<path fill="#FFFFFF" d="M303.1,12c0,1-0.2,1.9-0.7,2.8c-0.4,0.6-0.9,1-1.5,1c-0.3,0-0.5,0-0.8-0.1c-0.3-0.1-0.5-0.2-0.9-0.4
		l0.1-0.1c0.2,0,0.4,0.1,0.5,0.1c0.6,0,1.2-0.3,1.8-0.9c0.7-0.7,1.1-1.4,1.1-2.1v-0.1c-0.1,0.2-0.2,0.3-0.3,0.4
		c-0.1,0.1-0.2,0.1-0.3,0.1c-0.2,0-0.4-0.1-0.5-0.3c-0.1-0.2-0.2-0.4-0.2-0.6c0-0.4,0.1-0.7,0.2-1.1c0.2-0.5,0.4-0.8,0.7-0.8
		c0.3,0,0.5,0.3,0.7,0.9C303.1,11.2,303.1,11.6,303.1,12L303.1,12z M302.5,11.5c-0.1-0.3-0.2-0.5-0.4-0.5c-0.2,0-0.3,0.1-0.3,0.3
		c0,0.1,0,0.2,0.1,0.2c0.1,0.1,0.2,0.1,0.3,0.1C302.2,11.7,302.3,11.6,302.5,11.5L302.5,11.5z"/>
	<path fill="#FFFFFF" d="M302.3,6.6c0,0.2,0,0.3,0,0.3c0,0.1-0.1,0.2-0.2,0.2l-1.6,0.9c0-0.2,0-0.3,0.1-0.4s0.1-0.1,0.3-0.2
		L302.3,6.6L302.3,6.6z"/>
	<path fill="#FFFFFF" d="M298.7,11.6c0,0.4-0.1,0.9-0.3,1.3h-0.2c0-0.6,0-1.1-0.1-1.4c0,0,0-0.3-0.1-0.8c-0.1-0.3-0.2-0.9-0.3-1.5
		c0-0.2-0.1-0.4-0.1-0.6c0-0.1,0-0.3,0.1-0.5c0.1-0.1,0.3-0.3,0.5-0.6c0,0.5,0.1,1.2,0.2,2.2C298.6,10.4,298.7,11.1,298.7,11.6
		L298.7,11.6z"/>
	<path fill="#FFFFFF" d="M296.6,7.3c-0.3,0.3-0.4,0.6-0.4,0.9c0,0.2,0,0.5,0.1,0.9l0.2,1.2c0.1,0.5,0.1,0.8,0.1,1.1
		c0,0.5-0.1,1-0.4,1.3c-0.2,0.3-0.5,0.5-0.9,0.5h-0.4V12h0.4c0.2,0,0.4,0,0.5-0.1c0.1-0.1,0.1-0.2,0.1-0.4c0-0.3,0-0.7-0.1-1.2
		l-0.3-1.6c-0.1-0.5-0.1-0.9-0.1-1.2c0-0.2,0-0.4,0.2-0.6c0.1-0.1,0.2-0.3,0.4-0.4c0.1,0.2,0.2,0.4,0.3,0.5
		C296.3,7,296.5,7.2,296.6,7.3L296.6,7.3z"/>
	<path fill="#FFFFFF" d="M295.3,13.2h-1c-0.4,0-0.8,0-1,0c-0.6,0-0.9-0.1-1-0.1c-0.3,0-0.7,0-1.1,0c-0.2,0-0.4,0-0.6,0
		c0,0,0,0.1,0,0.1c0,0,0,0.1-0.1,0.3c0,0.1,0,0.1,0,0.2s0,0-0.1,0c0,0-0.1,0-0.1-0.1c0,0,0-0.1,0-0.1c0-0.1,0-0.1,0-0.1v-0.1
		c0,0,0-0.1,0-0.2c-0.1,0-0.2,0-0.2,0h-0.2c-0.3,0-0.5-0.1-0.7-0.3c-0.1-0.1-0.2-0.3-0.3-0.4c-0.2,0.5-0.5,0.7-0.8,0.7h-0.4V12h0.4
		c0.3,0,0.5,0,0.7-0.1c0.2-0.1,0.3-0.3,0.5-0.5l0,0c0,0.2,0.1,0.4,0.2,0.4c0.1,0.1,0.2,0.2,0.4,0.2c0.1,0,0.2,0,0.4,0
		c0.2,0,0.3,0,0.4,0c0.8-1.6,1.6-2.5,2.5-2.5c0.3,0,0.6,0.1,0.8,0.3c0.2,0.2,0.3,0.5,0.3,0.9c0,0.3-0.1,0.6-0.2,0.9
		c-0.1,0.2-0.4,0.4-0.7,0.6c0.1,0,0.2,0,0.3,0c0.2,0,0.4,0,0.5,0h1V13.2L295.3,13.2z M293.8,11.1c0-0.1-0.1-0.3-0.4-0.3
		c-0.2-0.1-0.4-0.1-0.6-0.1c-0.6,0-1.2,0.4-1.8,1.2c1.3,0,2.1-0.2,2.5-0.5C293.8,11.4,293.8,11.3,293.8,11.1L293.8,11.1z"/>
	<path fill="#FFFFFF" d="M292.2,5.2c0,0.2,0,0.3,0,0.3c0,0.1-0.1,0.2-0.2,0.2l-1.6,0.9c0-0.2,0-0.3,0.1-0.4c0-0.1,0.1-0.2,0.3-0.2
		L292.2,5.2L292.2,5.2z M292.3,6.7c0,0.2,0,0.4-0.1,0.6c-0.1,0.2-0.3,0.3-0.5,0.3c-0.1,0-0.2,0-0.4-0.1c-0.1,0.3-0.3,0.5-0.6,0.5
		c-0.3,0-0.4-0.2-0.4-0.7c0-0.1,0-0.3,0.1-0.5l0.1,0c0,0.4,0.1,0.6,0.2,0.6c0.2,0,0.3-0.1,0.4-0.4c0.1-0.2,0.1-0.4,0.1-0.6l0.1,0
		c0.1,0.4,0.2,0.6,0.3,0.6c0.1,0,0.2-0.1,0.3-0.3c0-0.2,0.1-0.3,0.1-0.5l0.1-0.1C292.3,6.4,292.3,6.6,292.3,6.7L292.3,6.7z"/>
	<path fill="#FFFFFF" d="M288.1,13.2h-0.8c-0.5,0-0.9-0.4-1-1.3c-0.2,0.9-0.6,1.3-1,1.3h-0.4V12h0.4c0.5,0,0.7-0.5,0.8-1.4
		c0-0.2,0-0.5-0.1-1l-0.1-1.3c0-0.3,0-0.6,0-0.9c0-0.2,0-0.3,0-0.3c0-0.1,0.1-0.2,0.2-0.4c0.2,0.2,0.3,0.4,0.3,0.5
		c0.1,0.2,0.1,0.4,0.1,0.8c0,1.5,0.1,2.6,0.3,3.3c0.1,0.5,0.3,0.7,0.5,0.7h0.8V13.2L288.1,13.2z"/>
	<path fill="#FFFFFF" d="M284.7,8.1c0,0.1,0,0.2-0.1,0.3c0,0-0.1,0.1-0.2,0.2l0,0l0,0c0,0,0,0,0,0c0,0,0-0.1,0-0.1c0,0,0,0,0-0.1
		c0-0.2-0.1-0.6-0.2-1.3l-0.1-0.5c0-0.1,0.1-0.1,0.1-0.2c0,0,0.1-0.1,0.2-0.2c0,0.2,0.1,0.4,0.1,0.6c0,0.2,0.1,0.4,0.1,0.7
		C284.7,7.8,284.7,8,284.7,8.1L284.7,8.1z"/>
	<path fill="#FFFFFF" d="M285.3,13.2h-0.9c-0.2,0.9-0.5,1.6-0.8,2.1c-0.4,0.5-0.8,0.7-1.3,0.7c-0.5,0-1-0.2-1.6-0.6l0.1-0.1
		c0.2,0.1,0.4,0.1,0.6,0.1c1.2,0,2.1-0.7,2.8-2.1H284c-0.4,0-0.6,0-0.7-0.1c-0.2-0.1-0.3-0.3-0.3-0.6c0-0.3,0.1-0.8,0.3-1.3
		c0.2-0.6,0.5-0.9,0.8-0.9c0.1,0,0.3,0.1,0.4,0.4c0.1,0.2,0.1,0.7,0.2,1.3h0.7V13.2L285.3,13.2z M284.2,12c-0.2-0.4-0.4-0.6-0.6-0.6
		c-0.2,0-0.3,0.1-0.3,0.3c0,0.2,0.2,0.3,0.5,0.3H284.2L284.2,12z"/>
	<path fill="#FFFFFF" d="M279.9,7.7l-0.5,0.7l-0.7-0.5l-0.3,0.6L277.7,8l0.4-0.7l0.7,0.5l0.4-0.7L279.9,7.7L279.9,7.7z M280.3,11.3
		c0,0.5-0.1,1-0.3,1.3c-0.3,0.4-0.6,0.6-1.1,0.6c-0.3,0-0.6-0.1-0.8-0.3c-0.2-0.2-0.3-0.5-0.3-0.9c0-0.7,0.2-1.4,0.7-2.3
		c0.2-0.5,0.5-0.7,0.7-0.7c0.4,0,0.7,0.3,0.9,0.9C280.2,10.4,280.3,10.8,280.3,11.3L280.3,11.3z M279.9,11.4
		c-0.4-0.5-0.8-0.8-1.2-0.8c-0.1,0-0.3,0.1-0.4,0.2c-0.1,0.1-0.2,0.2-0.2,0.4c0,0.3,0.2,0.5,0.7,0.5
		C279.1,11.7,279.4,11.6,279.9,11.4L279.9,11.4z"/>
	<path fill="#FFFFFF" d="M279.7,5l0,0.6c-0.1,0-0.2-0.1-0.4-0.3c-0.2,0.2-0.3,0.4-0.5,0.6c-0.2,0.2-0.4,0.2-0.6,0.3
		c-0.1,0-0.2,0-0.3-0.1c0.2-0.1,0.4-0.2,0.6-0.4c0.1-0.1,0.3-0.3,0.6-0.5c-0.2-0.2-0.3-0.3-0.3-0.5c0-0.2,0.1-0.4,0.2-0.6
		c0.1-0.2,0.3-0.3,0.5-0.3c0.1,0,0.2,0,0.3,0.1s0.1,0.2,0.1,0.4c0,0.2-0.1,0.4-0.2,0.7C279.6,4.9,279.7,5,279.7,5L279.7,5z
		 M279.4,4.5c0-0.1,0-0.2-0.1-0.2c-0.1-0.1-0.1-0.1-0.2-0.1c-0.1,0-0.1,0-0.1,0.1c0,0.1,0,0.1,0.1,0.2c0.1,0.1,0.2,0.1,0.3,0.2
		C279.3,4.7,279.3,4.6,279.4,4.5C279.3,4.5,279.4,4.5,279.4,4.5L279.4,4.5z"/>
	<path fill="#FFFFFF" d="M275.3,12c0,1-0.2,1.9-0.7,2.8c-0.4,0.6-0.9,1-1.5,1c-0.3,0-0.5,0-0.8-0.1c-0.3-0.1-0.5-0.2-0.9-0.4
		l0.1-0.1c0.2,0,0.4,0.1,0.5,0.1c0.6,0,1.2-0.3,1.8-0.9c0.7-0.7,1.1-1.4,1.1-2.1v-0.1c-0.1,0.2-0.2,0.3-0.3,0.4
		c-0.1,0.1-0.2,0.1-0.3,0.1c-0.2,0-0.4-0.1-0.5-0.3c-0.1-0.2-0.2-0.4-0.2-0.6c0-0.4,0.1-0.7,0.2-1.1c0.2-0.5,0.4-0.8,0.7-0.8
		c0.3,0,0.5,0.3,0.7,0.9C275.3,11.2,275.3,11.6,275.3,12L275.3,12z M274.7,11.5c-0.1-0.3-0.2-0.5-0.4-0.5c-0.2,0-0.3,0.1-0.3,0.3
		c0,0.1,0,0.2,0.1,0.2c0.1,0.1,0.2,0.1,0.3,0.1C274.4,11.7,274.5,11.6,274.7,11.5L274.7,11.5z"/>
	<path fill="#FFFFFF" d="M274.5,6.6c0,0.2,0,0.3,0,0.3c0,0.1-0.1,0.2-0.2,0.2l-1.6,0.9c0-0.2,0-0.3,0.1-0.4c0-0.1,0.1-0.1,0.3-0.2
		L274.5,6.6L274.5,6.6z"/>
	<path fill="#FFFFFF" d="M270.9,11.6c0,0.4-0.1,0.9-0.3,1.3h-0.2c0-0.6,0-1.1-0.1-1.4c0,0,0-0.3-0.1-0.8c-0.1-0.3-0.1-0.9-0.3-1.5
		c0-0.2-0.1-0.4-0.1-0.6c0-0.1,0-0.3,0.1-0.5c0.1-0.1,0.3-0.3,0.5-0.6c0,0.5,0.1,1.2,0.2,2.2C270.9,10.4,270.9,11.1,270.9,11.6
		L270.9,11.6z"/>
	<path fill="#FFFFFF" d="M268.8,7.3c-0.3,0.3-0.4,0.6-0.4,0.9c0,0.2,0,0.5,0.1,0.9l0.2,1.2c0.1,0.5,0.1,0.8,0.1,1.1
		c0,0.5-0.1,1-0.4,1.3c-0.2,0.3-0.5,0.5-0.9,0.5h-0.4V12h0.4c0.2,0,0.4,0,0.5-0.1c0.1-0.1,0.1-0.2,0.1-0.4c0-0.3,0-0.7-0.1-1.2
		l-0.3-1.6c-0.1-0.5-0.1-0.9-0.2-1.2c0-0.2,0-0.4,0.2-0.6c0.1-0.1,0.2-0.3,0.4-0.4c0.1,0.2,0.2,0.4,0.3,0.5
		C268.5,7,268.7,7.2,268.8,7.3L268.8,7.3z"/>
	<path fill="#FFFFFF" d="M267.3,13.2h-0.8c-0.3,0-0.5-0.1-0.7-0.4c-0.1-0.2-0.2-0.4-0.3-0.8c-0.2,0.7-0.5,1-0.9,1
		c-0.3,0-0.6-0.2-0.7-0.7c-0.2,0.5-0.6,0.8-1.2,0.8c-0.5,0-0.8-0.2-1-0.7c-0.1,0.2-0.2,0.4-0.3,0.5c-0.1,0.1-0.3,0.2-0.4,0.2h-0.5
		V12h0.5c0.3,0,0.5,0,0.7-0.1c0.2-0.1,0.3-0.3,0.5-0.5l0,0c0,0.2,0.1,0.4,0.2,0.5c0.1,0.1,0.2,0.1,0.4,0.1c0.3,0,0.6,0,0.8-0.1
		c0.3-0.1,0.6-0.4,0.7-0.7l0.1,0c0,0.4,0.2,0.6,0.5,0.7c0.3,0,0.5-0.2,0.6-0.7h0.1c0.1,0.6,0.4,0.8,0.9,0.8h0.8V13.2L267.3,13.2z"/>
	<path fill="#FFFFFF" d="M264.8,5.2c0,0.2,0,0.3,0,0.3c0,0.1-0.1,0.2-0.2,0.2l-1.6,0.9c0-0.2,0-0.3,0.1-0.4s0.1-0.2,0.3-0.2
		L264.8,5.2L264.8,5.2z M264.8,6.7c0,0.2,0,0.4-0.1,0.6c-0.1,0.2-0.3,0.3-0.5,0.3c-0.1,0-0.2,0-0.4-0.1c-0.1,0.3-0.4,0.5-0.6,0.5
		c-0.3,0-0.4-0.2-0.4-0.7c0-0.1,0-0.3,0.1-0.5l0.1,0c0,0.4,0.1,0.6,0.2,0.6c0.2,0,0.3-0.1,0.4-0.4c0.1-0.2,0.1-0.4,0.1-0.6l0.1,0
		c0.1,0.4,0.2,0.6,0.3,0.6c0.1,0,0.2-0.1,0.3-0.3c0-0.2,0.1-0.3,0.1-0.5l0.1-0.1C264.8,6.4,264.8,6.6,264.8,6.7L264.8,6.7z"/>
	<path fill="#FFFFFF" d="M260.8,13.2h-0.8c-0.5,0-0.8-0.4-1-1.1c-0.1-0.2-0.1-0.5-0.2-0.7c-0.2-0.7-0.2-1.5-0.2-2.5
		c-0.2,1.5-0.4,2.7-0.8,3.5c-0.3,0.7-0.8,1.1-1.6,1.3c-0.1,0-0.4,0.1-1.1,0.2l0-0.1c0.5-0.3,1-0.7,1.5-1.1c0.7-0.6,1-1.1,1-1.4
		c0-0.1-0.2-0.4-0.7-0.9s-0.7-0.7-0.9-0.7c0,0-0.1,0.1-0.2,0.2c-0.1,0.1-0.1,0.2-0.2,0.2c-0.2,0-0.5-0.2-1.1-0.5
		c-0.2-0.2-0.3-0.4-0.3-0.6c0-0.5,0-0.9,0.1-1c0-0.2,0.1-0.2,0.2-0.2c0.2,0,0.6,0.2,1.2,0.7c1,0.7,1.6,1.6,1.9,2.6
		c0.1-0.3,0.3-0.8,0.4-1.3c0.1-0.5,0.1-1,0.1-1.3c0-0.3,0-0.5,0-0.6c0-0.1,0.2-0.4,0.5-1c0,0.6,0.1,1.5,0.2,2.8
		c0.1,0.9,0.3,1.6,0.4,2c0.1,0.2,0.3,0.4,0.5,0.4h0.8V13.2L260.8,13.2z"/>
	<path fill="#FFFFFF" d="M259,4.6c0,0.2,0,0.3,0,0.3c0,0.1-0.1,0.2-0.2,0.2l-1.6,0.9c0-0.2,0-0.3,0.1-0.4c0-0.1,0.1-0.2,0.3-0.2
		L259,4.6L259,4.6z"/>
	<path fill="#FFFFFF" d="M254.2,11.6c0,0.3-0.2,0.6-0.4,1.1c-0.5-0.1-0.8-0.1-1-0.1c-1,0-1.5,0.2-1.5,0.6c0,0.1,0.1,0.3,0.2,0.8
		c0.2,0.6,0.3,1,0.4,1.3c0.1,0.5,0.2,0.9,0.2,1.1c0,0.2,0,0.3,0,0.4c0,0.1-0.1,0.2-0.2,0.3c0-0.4-0.2-0.9-0.3-1.5l-0.4-1.5
		c-0.1-0.5-0.2-0.9-0.2-1.1c0-0.6,0.2-1.1,0.5-1.3c0.3-0.2,0.8-0.3,1.5-0.3c-0.2-0.4-0.5-0.6-0.8-0.6c-0.1,0-0.2,0-0.3,0.1
		c-0.1,0.1-0.2,0.2-0.4,0.3l-0.3,0c0.2-0.5,0.3-0.9,0.4-1.2c0.3-0.4,0.6-0.6,1-0.6c0.4,0,0.7,0.3,1.1,0.8
		C254,10.8,254.2,11.2,254.2,11.6L254.2,11.6z"/>
	<path fill="#FFFFFF" d="M253.2,5l0,0.6c-0.1,0-0.2-0.1-0.4-0.3c-0.2,0.2-0.3,0.4-0.5,0.6c-0.2,0.2-0.4,0.2-0.6,0.3
		c-0.1,0-0.2,0-0.3-0.1c0.2-0.1,0.4-0.2,0.6-0.4c0.1-0.1,0.3-0.3,0.6-0.5c-0.2-0.2-0.3-0.3-0.3-0.5c0-0.2,0.1-0.4,0.2-0.6
		c0.1-0.2,0.3-0.3,0.5-0.3c0.1,0,0.2,0,0.3,0.1c0.1,0.1,0.1,0.2,0.1,0.4c0,0.2-0.1,0.4-0.2,0.7C253.1,4.9,253.2,5,253.2,5L253.2,5z
		 M252.8,4.5c0-0.1,0-0.2-0.1-0.2c-0.1-0.1-0.1-0.1-0.2-0.1c-0.1,0-0.1,0-0.1,0.1c0,0.1,0,0.1,0.1,0.2c0.1,0.1,0.2,0.1,0.3,0.2
		C252.8,4.7,252.8,4.6,252.8,4.5C252.8,4.5,252.8,4.5,252.8,4.5L252.8,4.5z"/>
	<path fill="#FFFFFF" d="M248.7,10.6c0,0.2-0.1,0.5-0.1,0.8c0,0.1-0.1,0.3-0.2,0.3c-0.1,0.1-0.4,0.2-0.8,0.4
		c-0.3,0.1-0.6,0.2-0.9,0.3c-0.5,0.2-0.9,0.4-1.2,0.5c-0.3,0.1-0.6,0.2-0.7,0.2h-0.4V12h0.4c0.3,0,0.5-0.1,0.6-0.2
		c-0.4-0.3-0.6-0.5-0.6-0.7c0-0.2,0.1-0.6,0.4-0.9c0.2-0.3,0.4-0.6,0.6-0.8c0.3-0.3,0.6-0.5,0.9-0.5c0.4,0,0.8,0.4,1.3,1.2
		c-0.2-0.1-0.3-0.1-0.4-0.1c-0.1,0-0.2,0-0.4,0c-0.3,0-0.6,0-0.9,0.1c-0.5,0.1-0.7,0.2-0.7,0.4c0,0.2,0.2,0.3,0.5,0.5
		c0.3,0.2,0.5,0.3,0.7,0.3C247.2,11.2,247.8,11,248.7,10.6L248.7,10.6z"/>
	<path fill="#FFFFFF" d="M247.7,6.6c0,0.2,0,0.3,0,0.3c0,0.1-0.1,0.2-0.2,0.2l-1.6,0.9c0-0.2,0-0.3,0.1-0.4c0-0.1,0.1-0.1,0.3-0.2
		L247.7,6.6L247.7,6.6z"/>
	<path fill="#FFFFFF" d="M244.8,13.2H244c-0.5,0-0.9-0.4-1-1.3c-0.2,0.9-0.6,1.3-1,1.3h-0.4V12h0.4c0.5,0,0.7-0.5,0.8-1.4
		c0-0.2,0-0.5-0.1-1l-0.1-1.3c0-0.3,0-0.6,0-0.9c0-0.2,0-0.3,0-0.3c0-0.1,0.1-0.2,0.2-0.4c0.2,0.2,0.3,0.4,0.3,0.5
		c0.1,0.2,0.1,0.4,0.1,0.8c0,1.5,0.1,2.6,0.3,3.3c0.1,0.5,0.3,0.7,0.5,0.7h0.8V13.2L244.8,13.2z"/>
	<path fill="#FFFFFF" d="M241.5,8.3c0,0.1,0,0.2-0.1,0.3c0,0-0.1,0.1-0.2,0.2l0,0l0,0c0,0,0,0,0,0c0,0,0-0.1,0-0.1c0,0,0,0,0-0.1
		c0-0.2-0.1-0.6-0.2-1.3l-0.1-0.5c0-0.1,0.1-0.1,0.1-0.2c0,0,0.1-0.1,0.2-0.2c0,0.2,0.1,0.4,0.1,0.6c0,0.2,0.1,0.4,0.1,0.7
		C241.4,8,241.5,8.2,241.5,8.3L241.5,8.3z"/>
	<path fill="#FFFFFF" d="M241.8,13.2h-1c-0.7,0-1,0.1-1,0.3c0,0.1,0.1,0.1,0.3,0.2c0.5,0.2,0.8,0.3,0.9,0.3c0.4,0.2,0.5,0.4,0.6,0.8
		c0,0.5-0.4,1-1.2,1.3c-0.7,0.3-1.3,0.5-1.9,0.5c-0.6,0-1.2-0.1-1.6-0.4c-0.5-0.3-0.7-0.8-0.7-1.4c0-0.6,0.2-1.4,0.6-2.3l0.2,0.1
		c-0.2,0.5-0.3,0.9-0.3,1.3c0,0.5,0.2,1,0.7,1.2c0.4,0.2,0.9,0.3,1.4,0.3c0.4,0,0.8,0,1.3-0.1c0.7-0.1,1-0.2,1-0.4
		c0,0-0.1-0.1-0.3-0.1c-0.3,0-0.5,0-0.8,0c-0.3,0-0.6-0.1-0.7-0.3c-0.1-0.1-0.1-0.2-0.1-0.4c0-0.5,0.2-0.9,0.5-1.3
		c0.4-0.4,0.8-0.6,1.2-0.6h1V13.2L241.8,13.2z"/>
	<path fill="#FFFFFF" d="M233.9,11.4c0,0.4-0.1,0.8-0.2,1.1c-0.2,0.4-0.5,0.6-0.8,0.6c-0.4,0-0.7-0.2-0.9-0.7
		c-0.3,0.6-0.7,0.9-1.2,0.9c-0.2,0-0.4-0.1-0.6-0.2c-0.2-0.1-0.3-0.3-0.4-0.5c-0.1,0.5-0.4,0.7-0.8,0.7h-0.5V12h0.5
		c0.3,0,0.5,0,0.7-0.1c0.2-0.1,0.3-0.3,0.5-0.5l0,0c0.1,0.4,0.2,0.6,0.5,0.6c0.7,0,1.2-0.4,1.5-1.1l0.1,0.1c0,0.3,0.1,0.5,0.2,0.7
		s0.3,0.3,0.6,0.3c0.2,0,0.2,0,0.2-0.1c0,0-0.1-0.1-0.2-0.2c-0.1-0.1-0.2-0.2-0.2-0.3c0-0.3,0.1-0.7,0.2-1.2
		c0.2,0.2,0.3,0.4,0.4,0.6C233.8,10.8,233.9,11,233.9,11.4L233.9,11.4z"/>
	<path fill="#FFFFFF" d="M232.3,6.6c0,0.2,0,0.3,0,0.3c0,0.1-0.1,0.2-0.2,0.2l-1.6,0.9c0-0.2,0-0.3,0.1-0.4c0-0.1,0.1-0.1,0.3-0.2
		L232.3,6.6L232.3,6.6z"/>
	<path fill="#FFFFFF" d="M228.7,13.2h-0.8c-0.4,0-0.6-0.2-0.8-0.7c-0.2,0.5-0.5,0.7-0.8,0.7h-0.5V12h0.5c0.3,0,0.5,0,0.7-0.1
		c0.2-0.1,0.3-0.3,0.5-0.5l0,0c0.1,0.4,0.2,0.6,0.4,0.6h0.8V13.2L228.7,13.2z M228.3,14.2l-0.5,0.8l-0.7-0.5l-0.3,0.6l-0.8-0.6
		l0.4-0.7l0.7,0.5l0.4-0.7L228.3,14.2L228.3,14.2z"/>
	<path fill="#FFFFFF" d="M228.7,15.6c0,0.2,0,0.3,0,0.4c0,0.1-0.1,0.1-0.2,0.2l-1.6,0.9c0-0.2,0-0.3,0.1-0.4c0-0.1,0.1-0.1,0.3-0.2
		L228.7,15.6L228.7,15.6z"/>
	<path fill="#FFFFFF" d="M228.3,6.7c0,0.3-0.1,0.5-0.2,0.7c-0.1,0.2-0.3,0.3-0.4,0.3c-0.1,0-0.2,0-0.4-0.1c-0.1,0.3-0.3,0.5-0.6,0.5
		c-0.3,0-0.4-0.2-0.4-0.6c0-0.1,0-0.3,0.1-0.6l0.1,0c0,0.4,0.1,0.6,0.2,0.6c0.2,0,0.3-0.1,0.4-0.4c0.1-0.2,0.1-0.4,0.1-0.6l0.1,0
		c0.1,0.4,0.2,0.6,0.3,0.6c0.1,0,0.2-0.1,0.2-0.2c0.1-0.2,0.1-0.4,0.1-0.6l0.1-0.1C228.2,6.4,228.3,6.6,228.3,6.7L228.3,6.7z"/>
	<path fill="#FFFFFF" d="M226.1,13.2h-0.7c-0.6,0-1-0.4-1.2-1.3c-0.4,0.8-0.9,1.2-1.7,1.2c-0.6,0-1-0.2-1-0.6c0-0.1,0.1-0.3,0.2-0.7
		c0-0.1,0.1-0.3,0.2-0.6l0.2,0c0.1,0.2,0.2,0.4,0.3,0.5s0.4,0.1,0.7,0.1c0.3,0,0.6,0,0.7-0.1c0.2-0.1,0.3-0.3,0.3-0.5
		c0-0.2,0-0.5-0.1-1c-0.1-0.4-0.1-0.8-0.1-1c0-0.2,0.1-0.4,0.2-0.6c0.1-0.1,0.2-0.3,0.4-0.5c0,0.5,0.1,1.2,0.3,2l0.2,1
		c0.1,0.6,0.3,0.9,0.6,0.9h0.7V13.2L226.1,13.2z"/>
	<path fill="#FFFFFF" d="M223.4,13.9c0,0.2,0,0.3,0,0.4c0,0.1-0.1,0.1-0.2,0.2l-1.6,0.9c0-0.2,0-0.3,0.1-0.4c0-0.1,0.1-0.1,0.3-0.2
		L223.4,13.9L223.4,13.9z"/>
	<path fill="#FFFFFF" d="M220.6,11.6c0,0.4-0.1,0.9-0.3,1.3h-0.2c0-0.6,0-1.1-0.1-1.4c0,0,0-0.3-0.1-0.8c-0.1-0.3-0.1-0.9-0.3-1.5
		c0-0.2-0.1-0.4-0.1-0.6c0-0.1,0-0.3,0.1-0.5c0.1-0.1,0.3-0.3,0.5-0.6c0,0.5,0.1,1.2,0.2,2.2C220.5,10.4,220.6,11.1,220.6,11.6
		L220.6,11.6z"/>
	<path fill="#FFFFFF" d="M218.5,7.3c-0.3,0.3-0.4,0.6-0.4,0.9c0,0.2,0,0.5,0.1,0.9l0.2,1.2c0.1,0.5,0.1,0.8,0.1,1.1
		c0,0.5-0.1,1-0.4,1.3c-0.2,0.3-0.5,0.5-0.9,0.5h-0.4V12h0.4c0.2,0,0.4,0,0.5-0.1c0.1-0.1,0.1-0.2,0.1-0.4c0-0.3,0-0.7-0.1-1.2
		l-0.3-1.6c-0.1-0.5-0.1-0.9-0.1-1.2c0-0.2,0-0.4,0.2-0.6c0.1-0.1,0.2-0.3,0.4-0.4c0.1,0.2,0.2,0.4,0.3,0.5
		C218.2,7,218.3,7.2,218.5,7.3L218.5,7.3z"/>
	<path fill="#FFFFFF" d="M217.5,6c-0.2,0.1-0.4,0.1-0.6,0c0-0.1,0-0.1,0-0.2c0.1,0,0.2-0.1,0.4-0.1c0.3-0.1,0.6-0.3,0.8-0.5
		c0-0.1-0.1-0.2-0.1-0.3c0-0.1-0.1-0.1-0.2-0.1c-0.1,0-0.2,0-0.4,0.1l0.2-0.6c0.2-0.1,0.3-0.1,0.4-0.1c0.1,0,0.3,0.1,0.4,0.2
		c0.1,0.1,0.2,0.2,0.2,0.2c0,0,0,0.1,0,0.3C218.7,5.3,218.3,5.7,217.5,6L217.5,6z"/>
	<path fill="#FFFFFF" d="M216.8,13.2H216c-0.2,0-0.3,0-0.4-0.1c-0.1-0.1-0.2-0.1-0.3-0.3c-0.1,0.5-0.3,0.7-0.7,0.7
		c-0.4,0-0.9-0.4-1.5-1.1c-0.1,0.3-0.3,0.5-0.4,0.6c-0.1,0.1-0.3,0.2-0.4,0.2h-0.4V12h0.4c0.4,0,0.8-0.3,1.1-0.9
		c0.1-0.2,0.2-0.4,0.3-0.5c0.1-0.2,0.3-0.2,0.5-0.2c0.2,0,0.4,0.2,0.6,0.5c0.1,0.2,0.3,0.4,0.4,0.6c0.2,0.3,0.5,0.4,0.8,0.4h0.8
		V13.2L216.8,13.2z M214.5,12c0-0.3,0-0.6-0.1-0.8c-0.1-0.2-0.2-0.3-0.3-0.3c-0.1,0-0.2,0.1-0.3,0.3c0,0.1-0.1,0.2-0.2,0.4
		c0.2,0.2,0.4,0.4,0.6,0.5c0.1,0.1,0.2,0.1,0.2,0.1C214.5,12.3,214.5,12.2,214.5,12L214.5,12z"/>
	<path fill="#FFFFFF" d="M215.1,7l0,0.6c-0.1,0-0.2-0.1-0.4-0.3c-0.2,0.2-0.3,0.4-0.5,0.6c-0.2,0.2-0.4,0.2-0.6,0.3
		c-0.1,0-0.2,0-0.3-0.1c0.2-0.1,0.4-0.2,0.6-0.4c0.1-0.1,0.3-0.3,0.6-0.5c-0.2-0.2-0.3-0.3-0.3-0.5c0-0.2,0.1-0.4,0.2-0.6
		c0.1-0.2,0.3-0.3,0.5-0.3c0.1,0,0.2,0,0.3,0.1c0.1,0.1,0.1,0.2,0.1,0.4c0,0.2-0.1,0.4-0.2,0.7C215,6.9,215.1,7,215.1,7L215.1,7z
		 M214.7,6.5c0-0.1,0-0.2-0.1-0.2c-0.1-0.1-0.1-0.1-0.2-0.1c-0.1,0-0.1,0-0.1,0.1c0,0.1,0,0.1,0.1,0.2c0.1,0.1,0.2,0.1,0.3,0.2
		C214.7,6.7,214.7,6.6,214.7,6.5C214.7,6.5,214.7,6.5,214.7,6.5L214.7,6.5z"/>
	<path fill="#FFFFFF" d="M212.1,13.2h-0.8c-0.1,0.7-0.3,1.3-0.5,1.9c-0.4,0.7-0.9,1.1-1.5,1.1c-0.4,0-1-0.2-1.6-0.6l0.1-0.1
		c0.3,0,0.5,0.1,0.6,0.1c0.8,0,1.7-0.6,2.6-1.9c-0.2-0.2-0.3-0.3-0.4-0.4c-0.2-0.3-0.4-0.6-0.5-0.8l0.7-1c0.3,0.5,0.5,0.7,0.7,0.7
		h0.6V13.2L212.1,13.2z"/>
	<path fill="#FFFFFF" d="M209.4,8c-0.2,0.1-0.4,0.1-0.6,0c0-0.1,0-0.1,0-0.2c0.1,0,0.2-0.1,0.4-0.1c0.3-0.1,0.6-0.3,0.8-0.5
		c0-0.1-0.1-0.2-0.1-0.3c0-0.1-0.1-0.1-0.2-0.1c-0.1,0-0.2,0-0.4,0.1l0.2-0.6c0.2-0.1,0.3-0.1,0.4-0.1c0.1,0,0.3,0,0.4,0.1
		c0.1,0.1,0.2,0.2,0.2,0.2c0,0,0,0.1,0,0.3C210.6,7.3,210.2,7.7,209.4,8L209.4,8z"/>
	<path fill="#FFFFFF" d="M207.4,11.4c0,0.4-0.1,0.8-0.2,1.1c-0.2,0.4-0.5,0.6-0.8,0.6c-0.4,0-0.7-0.2-0.9-0.7
		c-0.3,0.6-0.7,0.9-1.2,0.9c-0.2,0-0.4-0.1-0.6-0.2s-0.3-0.3-0.4-0.5c-0.1,0.5-0.4,0.7-0.8,0.7H202V12h0.5c0.3,0,0.5,0,0.7-0.1
		c0.2-0.1,0.3-0.3,0.5-0.5l0,0c0.1,0.4,0.2,0.6,0.5,0.6c0.7,0,1.2-0.4,1.5-1.1l0.1,0.1c0,0.3,0.1,0.5,0.2,0.7
		c0.1,0.2,0.3,0.3,0.6,0.3c0.2,0,0.2,0,0.2-0.1c0,0-0.1-0.1-0.2-0.2c-0.1-0.1-0.2-0.2-0.2-0.3c0-0.3,0.1-0.7,0.2-1.2
		c0.2,0.2,0.3,0.4,0.4,0.6C207.3,10.8,207.4,11,207.4,11.4L207.4,11.4z"/>
	<path fill="#FFFFFF" d="M205.8,6.6c0,0.2,0,0.3,0,0.3c0,0.1-0.1,0.2-0.2,0.2l-1.6,0.9c0-0.2,0-0.3,0.1-0.4c0-0.1,0.1-0.1,0.3-0.2
		L205.8,6.6L205.8,6.6z"/>
	<path fill="#FFFFFF" d="M202.5,13.2h-0.8c-0.5,0-0.9-0.4-1.1-1.3c-0.2,0.9-0.6,1.3-1,1.3h-0.4V12h0.4c0.5,0,0.7-0.5,0.8-1.4
		c0-0.2,0-0.5-0.1-1l-0.1-1.3c0-0.3,0-0.6,0-0.9c0-0.2,0-0.3,0-0.3c0-0.1,0.1-0.2,0.2-0.4c0.2,0.2,0.3,0.4,0.3,0.5
		c0.1,0.2,0.1,0.4,0.1,0.8c0,1.5,0.1,2.6,0.3,3.3c0.1,0.5,0.3,0.7,0.5,0.7h0.8V13.2L202.5,13.2z"/>
	<path fill="#FFFFFF" d="M201.7,14.3c0,0.2,0,0.3,0,0.4c0,0.1-0.1,0.1-0.2,0.2l-1.6,0.9c0-0.2,0-0.3,0.1-0.4c0-0.1,0.1-0.1,0.3-0.2
		L201.7,14.3L201.7,14.3z"/>
	<path fill="#FFFFFF" d="M199.4,13.2h-0.8c-0.4,0-0.6-0.2-0.8-0.7c-0.2,0.5-0.5,0.7-0.8,0.7h-0.5V12h0.5c0.3,0,0.5,0,0.7-0.1
		c0.2-0.1,0.3-0.3,0.5-0.5l0,0c0.1,0.4,0.2,0.6,0.4,0.6h0.8V13.2L199.4,13.2z M199,14.2l-0.5,0.8l-0.7-0.5l-0.3,0.6l-0.7-0.6
		l0.4-0.7l0.7,0.5l0.4-0.7L199,14.2L199,14.2z"/>
	<path fill="#FFFFFF" d="M197.6,8c-0.2,0.1-0.4,0.1-0.6,0c0-0.1,0-0.1,0-0.2c0.1,0,0.2-0.1,0.4-0.1c0.3-0.1,0.6-0.3,0.8-0.5
		c0-0.1-0.1-0.2-0.1-0.3c0-0.1-0.1-0.1-0.2-0.1c-0.1,0-0.2,0-0.4,0.1l0.2-0.6c0.2-0.1,0.3-0.1,0.4-0.1c0.1,0,0.3,0,0.4,0.1
		c0.1,0.1,0.2,0.2,0.2,0.2c0,0,0,0.1,0,0.3C198.8,7.3,198.4,7.7,197.6,8L197.6,8z"/>
	<path fill="#FFFFFF" d="M194.7,10.6l-0.4,0.8l-0.7-0.6L194,10L194.7,10.6L194.7,10.6z M197.1,13.2h-0.9c-0.1,0.5-0.2,1-0.4,1.6
		c-0.4,0.9-1.2,1.4-2.5,1.4c-0.5,0-0.9-0.1-1.2-0.3c-0.4-0.3-0.5-0.6-0.6-1.1c0-0.3,0.1-0.6,0.2-0.9c0.1-0.3,0.4-0.8,0.7-1.2
		l0.2,0.1c-0.3,0.5-0.5,0.9-0.5,1.1c0,0.4,0.2,0.7,0.5,0.9c0.3,0.2,0.6,0.3,1.1,0.3c0.5,0,0.9-0.1,1.3-0.2c0.5-0.2,0.7-0.5,0.7-1
		c0-0.3-0.1-0.5-0.2-0.8c-0.2-0.3-0.3-0.5-0.3-0.6c0-0.1,0.1-0.3,0.3-0.6c0.1-0.1,0.1-0.2,0.3-0.5c0.1,0.1,0.1,0.2,0.2,0.3
		c0.1,0.1,0.2,0.2,0.3,0.3c0,0,0.1,0,0.2,0h0.7V13.2L197.1,13.2z"/>
	<path fill="#FFFFFF" d="M195,6.6c0,0.2,0,0.3,0,0.3c0,0.1-0.1,0.2-0.2,0.2l-1.6,0.9c0-0.2,0-0.3,0.1-0.4c0-0.1,0.1-0.1,0.3-0.2
		L195,6.6L195,6.6z"/>
	<path fill="#FFFFFF" d="M188.8,11.6c0,0.4-0.1,0.9-0.3,1.3h-0.2c0-0.6,0-1.1-0.1-1.4c0,0,0-0.3-0.1-0.8c-0.1-0.3-0.1-0.9-0.3-1.5
		c0-0.2-0.1-0.4-0.1-0.6c0-0.1,0-0.3,0.1-0.5c0.1-0.1,0.3-0.3,0.5-0.6c0,0.5,0.1,1.2,0.2,2.2C188.8,10.3,188.8,11,188.8,11.6
		L188.8,11.6z"/>
	<path fill="#FFFFFF" d="M189.2,4.5c0,0.2,0,0.3,0,0.3c0,0.1-0.1,0.2-0.2,0.2L187.3,6c0-0.2,0-0.3,0.1-0.4s0.1-0.1,0.3-0.2
		L189.2,4.5L189.2,4.5z"/>
	<path fill="#FFFFFF" d="M187,11.6c0,0.3-0.1,0.5-0.2,0.7s-0.3,0.3-0.5,0.3c-0.3,0-0.7-0.2-1.3-0.5c-0.2,0.7-0.5,1-0.8,1h-0.4v-1.2
		h0.4c0.3,0,0.6-0.2,0.7-0.7l0.3-0.8c0.2-0.5,0.4-0.7,0.8-0.7c0.1,0,0.2,0,0.3,0.1c0.2,0.2,0.4,0.5,0.6,1
		C186.9,11.1,187,11.4,187,11.6L187,11.6z M186.3,11.3c0-0.1-0.1-0.3-0.2-0.4s-0.3-0.2-0.4-0.2c-0.2,0-0.3,0.1-0.4,0.3
		c0.2,0.1,0.4,0.2,0.5,0.3c0.1,0,0.2,0.1,0.3,0.1C186.2,11.5,186.3,11.4,186.3,11.3L186.3,11.3z"/>
	<path fill="#FFFFFF" d="M186.4,5.2c0,0.2,0,0.3,0,0.3c0,0.1-0.1,0.2-0.2,0.2l-1.6,0.9c0-0.2,0-0.3,0.1-0.4c0-0.1,0.1-0.2,0.3-0.2
		L186.4,5.2L186.4,5.2z M186.5,6.7c0,0.2,0,0.4-0.1,0.6c-0.1,0.2-0.3,0.3-0.5,0.3c-0.1,0-0.2,0-0.4-0.1c-0.1,0.3-0.3,0.5-0.6,0.5
		c-0.3,0-0.4-0.2-0.4-0.7c0-0.1,0-0.3,0.1-0.5l0.1,0c0,0.4,0.1,0.6,0.2,0.6c0.2,0,0.3-0.1,0.4-0.4c0.1-0.2,0.1-0.4,0.1-0.6l0.1,0
		c0.1,0.4,0.2,0.6,0.3,0.6c0.1,0,0.2-0.1,0.3-0.3c0-0.2,0.1-0.3,0.1-0.5l0.1-0.1C186.5,6.3,186.5,6.5,186.5,6.7L186.5,6.7z"/>
	<path fill="#FFFFFF" d="M184.1,13.2h-0.8c-0.7,0-1.1-0.6-1.1-1.9c0-0.7,0-1.2-0.1-1.6c0-0.1-0.1-0.3-0.2-0.6
		c-0.1-0.3-0.1-0.4-0.1-0.6c0-0.2,0.1-0.4,0.2-0.6c0.1-0.1,0.2-0.2,0.4-0.4l0.1,0.5c0.2,1.1,0.3,2.2,0.3,3.1c0,0.3,0,0.5,0.1,0.6
		c0.1,0.1,0.2,0.2,0.3,0.2h0.8V13.2L184.1,13.2z"/>
	<path fill="#FFFFFF" d="M181,11.3c0,0.6-0.1,1-0.4,1.4c-0.2,0.3-0.6,0.5-1,0.5H179v-1.2h0.6c0.6,0,0.9-0.1,0.9-0.3
		c0,0-0.1-0.2-0.3-0.4c-0.1-0.1-0.1-0.2-0.1-0.3c0-0.1,0.1-0.3,0.3-0.7c0-0.1,0.1-0.3,0.3-0.6C180.8,10.3,181,10.9,181,11.3
		L181,11.3z M180.8,14.1l-0.4,0.8l-0.7-0.5l0.4-0.8L180.8,14.1L180.8,14.1z"/>
	<path fill="#FFFFFF" d="M181.1,6.5c0,0.2,0,0.3,0,0.3c0,0.1-0.1,0.2-0.2,0.2L179.2,8c0-0.2,0-0.3,0.1-0.4s0.1-0.2,0.3-0.2
		L181.1,6.5L181.1,6.5z"/>
	<path fill="#FFFFFF" d="M179.4,13.2h-0.8c-0.2,0-0.4-0.1-0.7-0.4c-0.2-0.2-0.4-0.4-0.6-0.6c-0.2,0.2-0.4,0.4-0.6,0.6
		c-0.3,0.3-0.5,0.4-0.7,0.4h-0.4v-1.2h0.4c0.2,0,0.3,0,0.5-0.1c0.1,0,0.2-0.1,0.3-0.2l-0.3-0.2c-0.1-0.1-0.3-0.1-0.5-0.2
		c0.2-1,0.7-1.5,1.5-1.5c0.4,0,0.7,0.1,0.9,0.3c0.3,0.2,0.4,0.5,0.4,0.8c0,0.2-0.1,0.4-0.2,0.5c-0.1,0.1-0.3,0.2-0.5,0.4l0.2,0.1
		c0.1,0,0.2,0.1,0.3,0.1h0.8V13.2L179.4,13.2z"/>
	<path fill="#FFFFFF" d="M176.9,7.9c-0.2,0.1-0.4,0.1-0.6,0c0-0.1-0.1-0.1,0-0.2c0.1,0,0.2-0.1,0.4-0.1c0.3-0.1,0.6-0.3,0.8-0.5
		c0-0.1-0.1-0.2-0.1-0.3c0-0.1-0.1-0.1-0.2-0.1c-0.1,0-0.2,0-0.4,0.1l0.2-0.6c0.2-0.1,0.3-0.1,0.4-0.1c0.1,0,0.3,0.1,0.4,0.1
		c0.1,0.1,0.2,0.2,0.2,0.2c0,0,0,0.1,0,0.3C178.1,7.3,177.7,7.6,176.9,7.9L176.9,7.9z"/>
	<path fill="#FFFFFF" d="M175.7,13.2h-0.7c-0.6,0-1-0.4-1.2-1.3c-0.4,0.8-0.9,1.2-1.7,1.2c-0.6,0-1-0.2-1-0.6c0-0.1,0.1-0.3,0.2-0.7
		c0-0.1,0.1-0.3,0.2-0.6l0.1,0c0.1,0.2,0.2,0.4,0.3,0.5c0.1,0.1,0.4,0.2,0.7,0.2c0.3,0,0.6,0,0.7-0.1c0.2-0.1,0.3-0.3,0.3-0.5
		c0-0.2,0-0.5-0.1-1c-0.1-0.4-0.1-0.8-0.1-1c0-0.2,0.1-0.4,0.2-0.6c0.1-0.1,0.2-0.3,0.4-0.5c0,0.5,0.1,1.2,0.3,2l0.2,1
		c0.1,0.6,0.3,0.9,0.6,0.9h0.7V13.2L175.7,13.2z"/>
	<path fill="#FFFFFF" d="M173.9,6.9l0,0.6c-0.1,0-0.2-0.1-0.4-0.3c-0.2,0.2-0.3,0.4-0.5,0.6c-0.2,0.2-0.4,0.2-0.6,0.3
		c-0.1,0-0.2,0-0.3-0.1c0.2-0.1,0.4-0.2,0.6-0.4c0.1-0.1,0.3-0.3,0.6-0.5c-0.2-0.2-0.3-0.3-0.3-0.5c0-0.2,0.1-0.4,0.2-0.6
		c0.1-0.2,0.3-0.3,0.5-0.3c0.1,0,0.2,0,0.3,0.1c0.1,0.1,0.1,0.2,0.1,0.4c0,0.2-0.1,0.4-0.2,0.7C173.7,6.8,173.8,6.9,173.9,6.9
		L173.9,6.9z M173.5,6.4c0-0.1,0-0.2-0.1-0.2c-0.1-0.1-0.1-0.1-0.2-0.1c-0.1,0-0.1,0-0.1,0.1c0,0.1,0,0.1,0.1,0.2
		c0.1,0.1,0.2,0.1,0.3,0.2C173.4,6.6,173.4,6.6,173.5,6.4C173.5,6.5,173.5,6.4,173.5,6.4L173.5,6.4z"/>
	<path fill="#FFFFFF" d="M165.6,7.2l-0.4,0.7l-0.7-0.5l0.4-0.7L165.6,7.2L165.6,7.2z M166.4,11.2c0,1.3-0.7,1.9-2.1,1.9h-0.4v-1.2
		h0.4c1.1,0,1.7-0.2,1.7-0.6c0-0.1,0-0.2-0.1-0.3c-0.1-0.1-0.1-0.2-0.2-0.3c-0.1,0.3-0.2,0.4-0.3,0.5c-0.1,0.1-0.3,0.2-0.6,0.2
		c-0.5,0-0.7-0.2-0.7-0.6c0-0.2,0.1-0.7,0.2-1.4c0.2-0.7,0.4-1.1,0.8-1.1c0.4,0,0.7,0.4,0.9,1.3C166.3,10.1,166.4,10.7,166.4,11.2
		L166.4,11.2z M165.3,9.8c-0.1-0.1-0.2-0.2-0.2-0.3c-0.1-0.1-0.1-0.1-0.2-0.1c-0.2,0-0.2,0.1-0.2,0.3c0,0.2,0.1,0.3,0.3,0.3
		c0.1,0,0.1,0,0.2-0.1C165.2,10.1,165.2,10,165.3,9.8L165.3,9.8z"/>
	<path fill="#FFFFFF" d="M166.2,4.5c0,0.2,0,0.3,0,0.3c0,0.1-0.1,0.2-0.2,0.2L164.3,6c0-0.2,0-0.3,0.1-0.4s0.1-0.1,0.3-0.2
		L166.2,4.5L166.2,4.5z"/>
	<path fill="#FFFFFF" d="M164.3,13.2h-0.8c-0.7,0-1.1-0.6-1.1-1.9c0-0.7,0-1.2-0.1-1.6c0-0.1-0.1-0.3-0.2-0.6
		c-0.1-0.3-0.1-0.4-0.1-0.6c0-0.2,0.1-0.4,0.2-0.6c0.1-0.1,0.2-0.2,0.4-0.4l0.1,0.5c0.2,1.1,0.3,2.2,0.3,3.1c0,0.3,0.1,0.5,0.2,0.6
		c0.1,0.1,0.2,0.2,0.3,0.2h0.8V13.2L164.3,13.2z"/>
	<path fill="#FFFFFF" d="M163.6,4.5c0,0.2,0,0.3,0,0.3c0,0.1-0.1,0.2-0.2,0.2L161.7,6c0-0.2,0-0.3,0.1-0.4c0-0.1,0.1-0.1,0.3-0.2
		L163.6,4.5L163.6,4.5z"/>
	<path fill="#FFFFFF" d="M161.2,10.6c0,0.2-0.1,0.5-0.1,0.8c0,0.1-0.1,0.3-0.2,0.3c-0.1,0.1-0.4,0.2-0.8,0.4
		c-0.3,0.1-0.6,0.2-0.9,0.3c-0.5,0.2-0.9,0.4-1.2,0.5c-0.3,0.1-0.6,0.2-0.7,0.2H157v-1.2h0.4c0.3,0,0.5-0.1,0.6-0.2
		c-0.4-0.3-0.6-0.5-0.6-0.7c0-0.2,0.1-0.6,0.4-0.9c0.2-0.3,0.4-0.6,0.6-0.8c0.3-0.3,0.6-0.5,0.9-0.5c0.4,0,0.8,0.4,1.3,1.2
		c-0.2-0.1-0.3-0.1-0.4-0.1c-0.1,0-0.2,0-0.4,0c-0.3,0-0.6,0-0.9,0.1c-0.5,0.1-0.7,0.3-0.7,0.4c0,0.2,0.2,0.3,0.5,0.5
		c0.3,0.2,0.5,0.3,0.7,0.3C159.8,11.2,160.4,11,161.2,10.6L161.2,10.6z"/>
	<path fill="#FFFFFF" d="M160,6.9l0,0.6c-0.1,0-0.2-0.1-0.5-0.3c-0.2,0.2-0.3,0.4-0.5,0.6c-0.2,0.2-0.4,0.2-0.6,0.3
		c-0.1,0-0.2,0-0.3-0.1c0.2-0.1,0.4-0.2,0.6-0.4c0.1-0.1,0.3-0.3,0.6-0.5c-0.2-0.2-0.3-0.3-0.3-0.5c0-0.2,0.1-0.4,0.2-0.6
		c0.1-0.2,0.3-0.3,0.5-0.3c0.1,0,0.2,0,0.3,0.1c0.1,0.1,0.1,0.2,0.1,0.4c0,0.2-0.1,0.4-0.2,0.7C159.9,6.8,159.9,6.9,160,6.9L160,6.9
		z M159.6,6.4c0-0.1,0-0.2-0.1-0.2c-0.1-0.1-0.1-0.1-0.2-0.1c-0.1,0-0.1,0-0.1,0.1c0,0.1,0,0.1,0.1,0.2c0.1,0.1,0.2,0.1,0.3,0.2
		C159.6,6.6,159.6,6.6,159.6,6.4C159.6,6.5,159.6,6.4,159.6,6.4L159.6,6.4z"/>
	<path fill="#FFFFFF" d="M157.4,13.2h-0.9c-0.2,0.9-0.5,1.6-0.8,2.1c-0.4,0.5-0.8,0.7-1.3,0.7c-0.5,0-1-0.2-1.6-0.6l0.1-0.1
		c0.2,0.1,0.4,0.1,0.6,0.1c1.2,0,2.1-0.7,2.8-2.1h-0.2c-0.4,0-0.6,0-0.7-0.1c-0.2-0.1-0.3-0.3-0.3-0.6c0-0.3,0.1-0.8,0.3-1.3
		c0.2-0.6,0.5-0.9,0.8-0.9c0.1,0,0.3,0.1,0.4,0.4c0.1,0.2,0.1,0.7,0.2,1.3h0.7V13.2L157.4,13.2z M156.4,11.9
		c-0.2-0.4-0.4-0.6-0.6-0.6c-0.2,0-0.3,0.1-0.3,0.3c0,0.2,0.2,0.3,0.5,0.3H156.4L156.4,11.9z"/>
	<path fill="#FFFFFF" d="M154.5,7.9c-0.2,0.1-0.4,0.1-0.6,0c0-0.1-0.1-0.1,0-0.2c0.1,0,0.2-0.1,0.4-0.1c0.3-0.1,0.6-0.3,0.8-0.5
		c0-0.1-0.1-0.2-0.1-0.3c0-0.1-0.1-0.1-0.2-0.1c-0.1,0-0.2,0-0.4,0.1l0.2-0.6c0.2-0.1,0.3-0.1,0.4-0.1c0.1,0,0.3,0.1,0.4,0.1
		c0.1,0.1,0.2,0.2,0.2,0.2c0,0,0,0.1,0,0.3C155.7,7.3,155.3,7.6,154.5,7.9L154.5,7.9z"/>
	<path fill="#FFFFFF" d="M151.4,7.4L151,8.2l-0.7-0.5l0.5-0.7L151.4,7.4L151.4,7.4z M152.7,11.5c0,0.6-0.2,1.1-0.5,1.3
		c-0.2,0.1-0.5,0.2-0.8,0.3c-0.3,0.1-0.7,0.1-1.1,0.1h-0.1c-0.2,0-0.3,0-0.3,0c-0.1,0-0.2,0-0.4,0l0.2-1.4c0.2,0,0.4,0,0.5,0
		c1.3,0,2-0.1,2-0.4c0-0.2-0.3-0.5-0.8-0.8c-0.2-0.1-0.6-0.3-1.2-0.6l0.6-1.3c0.4,0.3,0.8,0.5,1,0.8C152.4,10,152.7,10.7,152.7,11.5
		L152.7,11.5z"/>
	<path fill="#FFFFFF" d="M151.5,4.9l0,0.6c-0.1,0-0.2-0.1-0.4-0.3c-0.2,0.2-0.3,0.4-0.5,0.6C150.2,5.9,150,6,149.9,6
		c-0.1,0-0.2,0-0.3-0.1c0.2-0.1,0.4-0.2,0.6-0.4c0.1-0.1,0.3-0.3,0.6-0.5c-0.2-0.2-0.3-0.3-0.3-0.5c0-0.2,0.1-0.4,0.2-0.6
		c0.1-0.2,0.3-0.3,0.5-0.3c0.1,0,0.2,0,0.3,0.1c0.1,0.1,0.1,0.2,0.1,0.4c0,0.2-0.1,0.4-0.2,0.7C151.3,4.8,151.4,4.9,151.5,4.9
		L151.5,4.9z M151.1,4.4c0-0.1,0-0.2-0.1-0.2c-0.1-0.1-0.1-0.1-0.2-0.1c-0.1,0-0.1,0-0.1,0.1c0,0.1,0,0.1,0.1,0.2
		c0.1,0.1,0.2,0.1,0.3,0.2C151,4.6,151.1,4.6,151.1,4.4C151.1,4.5,151.1,4.4,151.1,4.4L151.1,4.4z"/>
	<path fill="#FFFFFF" d="M148.3,11.3c0,0.6-0.1,1-0.4,1.4c-0.2,0.3-0.6,0.5-1,0.5h-0.6v-1.2h0.6c0.6,0,0.9-0.1,0.9-0.3
		c0,0-0.1-0.2-0.3-0.4c-0.1-0.1-0.1-0.2-0.1-0.3c0-0.1,0.1-0.3,0.3-0.7c0-0.1,0.1-0.3,0.3-0.6C148.2,10.3,148.3,10.9,148.3,11.3
		L148.3,11.3z M148.2,14.1l-0.4,0.8l-0.7-0.5l0.4-0.8L148.2,14.1L148.2,14.1z"/>
	<path fill="#FFFFFF" d="M148.5,16.5c0,0.2,0,0.3,0,0.4c0,0.1-0.1,0.1-0.2,0.2l-1.6,0.9c0-0.2,0-0.3,0.1-0.4c0-0.1,0.1-0.1,0.3-0.2
		L148.5,16.5L148.5,16.5z"/>
	<path fill="#FFFFFF" d="M146.7,13.2h-0.8c-0.7,0-1.1-0.6-1.1-1.9c0-0.7,0-1.2-0.1-1.6c0-0.1-0.1-0.3-0.2-0.6
		c-0.1-0.3-0.1-0.4-0.1-0.6c0-0.2,0.1-0.4,0.2-0.6c0.1-0.1,0.2-0.2,0.4-0.4l0.1,0.5c0.2,1.1,0.3,2.2,0.3,3.1c0,0.3,0.1,0.5,0.1,0.6
		c0.1,0.1,0.2,0.2,0.3,0.2h0.8V13.2L146.7,13.2z"/>
	<path fill="#FFFFFF" d="M143.5,7.3c-0.3,0.3-0.4,0.6-0.4,0.9c0,0.2,0,0.5,0.1,0.9l0.2,1.2c0.1,0.5,0.1,0.8,0.1,1.1
		c0,0.5-0.1,1-0.4,1.3c-0.2,0.3-0.5,0.5-0.9,0.5h-0.4v-1.2h0.4c0.2,0,0.4,0,0.5-0.1c0.1-0.1,0.1-0.2,0.1-0.4c0-0.3,0-0.7-0.1-1.2
		l-0.3-1.6c-0.1-0.5-0.1-0.9-0.1-1.2c0-0.2,0-0.4,0.2-0.6c0.1-0.1,0.2-0.3,0.4-0.5c0.1,0.2,0.2,0.4,0.3,0.5
		C143.2,7,143.3,7.1,143.5,7.3L143.5,7.3z"/>
	<path fill="#FFFFFF" d="M142.2,13.2h-0.8c-0.5,0-0.9-0.4-1-1.3c-0.2,0.9-0.6,1.3-1,1.3h-0.4v-1.2h0.4c0.5,0,0.7-0.5,0.8-1.4
		c0-0.2,0-0.5-0.1-1l-0.1-1.3c0-0.3,0-0.6,0-0.9c0-0.2,0-0.3,0-0.3c0-0.1,0.1-0.2,0.2-0.4c0.2,0.2,0.3,0.4,0.3,0.5
		c0.1,0.2,0.1,0.4,0.1,0.8c0,1.5,0.1,2.6,0.3,3.3c0.1,0.5,0.3,0.7,0.5,0.7h0.8V13.2L142.2,13.2z"/>
	<path fill="#FFFFFF" d="M140.4,3.9l-0.2,0.2c-0.1-0.4-0.2-0.6-0.3-0.7c-0.1-0.2-0.3-0.4-0.5-0.6L139.3,2c0.4,0.2,0.7,0.5,0.8,0.8
		C140.2,3,140.3,3.4,140.4,3.9L140.4,3.9z M141.3,4.7c0,0.2,0,0.4-0.1,0.6c-0.1,0.2-0.2,0.3-0.4,0.3c-0.1,0-0.2,0-0.4-0.1
		C140.2,5.8,140,6,139.8,6c-0.1,0-0.2-0.1-0.3-0.2c-0.1-0.1-0.1-0.3-0.1-0.4c0-0.1,0-0.3,0.1-0.6l0.1,0c0,0.4,0.1,0.6,0.3,0.6
		c0.3,0,0.5-0.3,0.5-0.9l0.1,0c0.1,0.4,0.2,0.5,0.4,0.5c0.1,0,0.2-0.1,0.3-0.2c0.1-0.2,0.1-0.3,0.1-0.5c0-0.1,0-0.1,0-0.2l0.1,0
		C141.3,4.3,141.3,4.5,141.3,4.7L141.3,4.7z"/>
	<path fill="#FFFFFF" d="M139.4,13.2h-0.8c-0.4,0-0.6-0.2-0.8-0.5c-0.1-0.2-0.1-0.5-0.2-0.9c-0.4,0.6-0.8,0.9-1,0.9
		c-0.2,0-0.3,0-0.5-0.1c-0.2-0.1-0.3-0.2-0.3-0.4c0-0.2,0.1-0.5,0.3-0.9c0.1-0.2,0.3-0.5,0.5-0.6c0.1-0.1,0.3-0.2,0.7-0.4
		c0-0.1,0-0.2-0.1-0.3c0-0.1-0.1-0.2-0.1-0.3c0-0.1,0-0.1,0.1-0.3c0.1-0.2,0.3-0.3,0.5-0.5c0,0,0.1,0.7,0.3,2c0,0.2,0.1,0.5,0.1,0.8
		c0.1,0.3,0.2,0.4,0.4,0.4h0.8V13.2L139.4,13.2z M137.5,11.3c0,0,0-0.2-0.1-0.4c0-0.1,0-0.2-0.1-0.4c-0.6,0.3-0.9,0.6-0.9,0.7
		c0,0.1,0.1,0.1,0.2,0.1c0.1,0,0.3,0.1,0.6,0.1C137.4,11.4,137.5,11.4,137.5,11.3L137.5,11.3z"/>
	<path fill="#FFFFFF" d="M138.3,14.3c0,0.2,0,0.3,0,0.4c0,0.1-0.1,0.1-0.2,0.2l-1.6,0.9c0-0.2,0-0.3,0.1-0.4c0-0.1,0.1-0.1,0.3-0.2
		L138.3,14.3L138.3,14.3z"/>
	<path fill="#FFFFFF" d="M133.6,11.6c0,0.3-0.1,0.5-0.2,0.7c-0.1,0.2-0.3,0.3-0.5,0.3c-0.3,0-0.7-0.2-1.3-0.5c-0.2,0.7-0.5,1-0.8,1
		h-0.4v-1.2h0.4c0.3,0,0.6-0.2,0.7-0.7l0.3-0.8c0.2-0.5,0.4-0.7,0.8-0.7c0.1,0,0.2,0,0.3,0.1c0.2,0.2,0.4,0.5,0.6,1
		C133.6,11.1,133.6,11.4,133.6,11.6L133.6,11.6z M132.9,11.3c0-0.1-0.1-0.3-0.2-0.4c-0.1-0.1-0.3-0.2-0.4-0.2
		c-0.2,0-0.3,0.1-0.4,0.3c0.2,0.1,0.4,0.2,0.5,0.3c0.1,0,0.2,0.1,0.3,0.1C132.9,11.5,132.9,11.4,132.9,11.3L132.9,11.3z"/>
	<path fill="#FFFFFF" d="M133.1,14.3c0,0.2,0,0.3,0,0.4c0,0.1-0.1,0.1-0.2,0.2l-1.6,0.9c0-0.2,0-0.3,0.1-0.4c0-0.1,0.1-0.1,0.3-0.2
		L133.1,14.3L133.1,14.3z"/>
	<path fill="#FFFFFF" d="M128.4,10.5l-0.4,0.8l-0.7-0.6l0.4-0.7L128.4,10.5L128.4,10.5z M130.8,13.2h-0.9c-0.1,0.5-0.2,1-0.4,1.6
		c-0.4,0.9-1.2,1.4-2.5,1.4c-0.5,0-0.9-0.1-1.2-0.3c-0.4-0.3-0.5-0.6-0.6-1.1c0-0.3,0.1-0.6,0.2-0.9c0.1-0.3,0.4-0.8,0.7-1.2
		l0.2,0.1c-0.3,0.5-0.5,0.9-0.5,1.1c0,0.4,0.2,0.7,0.5,0.9c0.3,0.2,0.6,0.3,1.1,0.3c0.5,0,0.9-0.1,1.3-0.2c0.5-0.2,0.7-0.5,0.7-1
		c0-0.3-0.1-0.5-0.2-0.8c-0.2-0.3-0.3-0.5-0.3-0.6c0-0.1,0.1-0.3,0.3-0.6c0.1-0.1,0.1-0.2,0.3-0.5c0.1,0.1,0.1,0.2,0.2,0.3
		c0.1,0.1,0.2,0.2,0.3,0.3c0,0,0.1,0,0.2,0h0.7V13.2L130.8,13.2z"/>
	<path fill="#FFFFFF" d="M128.7,6.5c0,0.2,0,0.3,0,0.3c0,0.1-0.1,0.2-0.2,0.2L126.8,8c0-0.2,0-0.3,0.1-0.4s0.1-0.2,0.3-0.2
		L128.7,6.5L128.7,6.5z"/>
	<path fill="#FFFFFF" d="M124.2,11.6c0,0.4-0.1,0.9-0.3,1.3h-0.2c0-0.6,0-1.1-0.1-1.4c0,0,0-0.3-0.1-0.8c-0.1-0.3-0.1-0.9-0.3-1.5
		c0-0.2-0.1-0.4-0.1-0.6c0-0.1,0-0.3,0.1-0.5c0.1-0.1,0.3-0.3,0.5-0.6c0,0.5,0.1,1.2,0.2,2.2C124.1,10.3,124.2,11,124.2,11.6
		L124.2,11.6z"/>
	<path fill="#FFFFFF" d="M122.1,7.3c-0.3,0.3-0.4,0.6-0.4,0.9c0,0.2,0,0.5,0.1,0.9l0.2,1.2c0.1,0.5,0.1,0.8,0.1,1.1
		c0,0.5-0.1,1-0.4,1.3c-0.2,0.3-0.5,0.5-0.9,0.5h-0.4v-1.2h0.4c0.2,0,0.4,0,0.5-0.1c0.1-0.1,0.1-0.2,0.1-0.4c0-0.3,0-0.7-0.1-1.2
		L121,8.6c-0.1-0.5-0.1-0.9-0.1-1.2c0-0.2,0-0.4,0.2-0.6c0.1-0.1,0.2-0.3,0.4-0.5c0.1,0.2,0.2,0.4,0.3,0.5
		C121.8,7,121.9,7.1,122.1,7.3L122.1,7.3z"/>
	<path fill="#FFFFFF" d="M117.7,8.2l-0.4,0.8l-0.7-0.6l0.4-0.7L117.7,8.2L117.7,8.2z M118.5,9.3l-0.5,0.7l-0.7-0.5l-0.4,0.6
		l-0.7-0.6l0.4-0.7l0.7,0.5l0.4-0.7L118.5,9.3L118.5,9.3z M120.6,13.2h-0.8c-0.3,0-0.5-0.1-0.7-0.4c-0.1-0.2-0.2-0.4-0.3-0.8
		c-0.2,0.7-0.5,1-0.9,1c-0.3,0-0.6-0.2-0.7-0.7c-0.2,0.5-0.6,0.8-1.2,0.8c-0.5,0-0.8-0.2-1-0.7c-0.1,0.2-0.2,0.4-0.3,0.5
		c-0.1,0.1-0.3,0.2-0.4,0.2h-0.5v-1.2h0.5c0.3,0,0.5,0,0.7-0.1c0.2-0.1,0.3-0.3,0.5-0.5l0,0c0,0.2,0.1,0.4,0.2,0.5
		c0.1,0.1,0.2,0.1,0.4,0.1c0.3,0,0.6,0,0.8-0.1c0.3-0.1,0.6-0.4,0.7-0.7l0.1,0c0,0.4,0.2,0.6,0.5,0.7c0.3,0,0.5-0.2,0.6-0.7h0.1
		c0.1,0.6,0.4,0.8,0.9,0.8h0.8V13.2L120.6,13.2z"/>
	<path fill="#FFFFFF" d="M118.1,3.2c0,0.2,0,0.3,0,0.3c0,0.1-0.1,0.2-0.2,0.2l-1.6,0.9c0-0.2,0-0.3,0.1-0.4c0-0.1,0.1-0.2,0.3-0.2
		L118.1,3.2L118.1,3.2z M118.1,4.7c0,0.2,0,0.4-0.1,0.6c-0.1,0.2-0.3,0.3-0.5,0.3c-0.1,0-0.2,0-0.4-0.1C117,5.8,116.8,6,116.6,6
		c-0.3,0-0.4-0.2-0.4-0.7c0-0.1,0-0.3,0.1-0.5l0.1,0c0,0.4,0.1,0.6,0.2,0.6c0.2,0,0.3-0.1,0.4-0.4c0.1-0.2,0.1-0.4,0.1-0.6l0.1,0
		c0.1,0.4,0.2,0.6,0.3,0.6c0.1,0,0.2-0.1,0.3-0.3c0-0.2,0.1-0.3,0.1-0.5l0.1-0.1C118.1,4.3,118.1,4.5,118.1,4.7L118.1,4.7z"/>
	<path fill="#FFFFFF" d="M114,13.2h-0.8c-0.4,0-0.6-0.2-0.8-0.7c-0.2,0.5-0.5,0.7-0.8,0.7h-0.5v-1.2h0.5c0.3,0,0.5,0,0.7-0.1
		c0.2-0.1,0.3-0.3,0.5-0.5l0,0c0.1,0.4,0.2,0.6,0.4,0.6h0.8V13.2L114,13.2z M113.6,14.1l-0.5,0.8l-0.7-0.5l-0.3,0.6l-0.7-0.6
		l0.4-0.7l0.7,0.5l0.4-0.7L113.6,14.1L113.6,14.1z"/>
	<path fill="#FFFFFF" d="M112.2,7.9c-0.2,0.1-0.4,0.1-0.6,0c0-0.1-0.1-0.1,0-0.2c0.1,0,0.2-0.1,0.4-0.1c0.3-0.1,0.6-0.3,0.8-0.5
		c0-0.1-0.1-0.2-0.1-0.3c0-0.1-0.1-0.1-0.2-0.1c-0.1,0-0.2,0-0.4,0.1l0.2-0.6c0.2-0.1,0.3-0.1,0.4-0.1c0.1,0,0.3,0.1,0.4,0.1
		c0.1,0.1,0.2,0.2,0.2,0.2c0,0,0,0.1,0,0.3C113.3,7.3,112.9,7.6,112.2,7.9L112.2,7.9z"/>
	<path fill="#FFFFFF" d="M111.6,13.2h-1.1c0.1,0-0.6,0-2.1-0.1c-0.1,0-0.4,0-0.8,0l-1.5,0.1v-1.2h0.8c0.1-0.3,0.2-0.6,0.2-0.9
		c0-0.3,0-0.7-0.1-1.2c-0.2-0.8-0.2-1.1-0.2-1.2c-0.1-0.5-0.1-0.8-0.1-1.2c0-0.4,0.2-0.8,0.6-1.3c0.1,0.1,0.2,0.3,0.3,0.5
		c0.1,0.2,0.2,0.3,0.3,0.5c-0.3,0.4-0.5,0.8-0.5,1l0.1,0.9c0,0.3,0.1,0.5,0.1,0.7c0,0.3,0,0.5,0,0.6c0,0.1,0,0.4-0.1,0.7
		c0.6-1.2,1.3-1.8,2.2-1.8c0.3,0,0.6,0.1,0.8,0.3c0.2,0.2,0.3,0.5,0.3,0.8c0,0.4-0.2,0.9-0.6,1.3c0.2,0,0.4,0,0.5,0c0,0,0.1,0,0.2,0
		h0.9V13.2L111.6,13.2z M110.1,11.1c0-0.1-0.1-0.2-0.4-0.3c-0.2-0.1-0.4-0.1-0.5-0.1c-0.4,0-0.7,0.1-0.9,0.3
		c-0.3,0.2-0.5,0.5-0.7,0.9c0.3,0,0.7,0,1.2-0.1c0.3,0,0.5-0.1,0.8-0.2C109.9,11.4,110.1,11.3,110.1,11.1L110.1,11.1z"/>
	<path fill="#FFFFFF" d="M108.9,6.8c0,0.1-0.1,0.3-0.3,0.5l0,0c0-0.1,0-0.2,0-0.2c0-0.2-0.1-0.8-0.3-1.8c0.1-0.1,0.2-0.2,0.3-0.3
		c0,0,0.1,0.3,0.2,0.9C108.9,6.2,108.9,6.5,108.9,6.8L108.9,6.8z"/>
	<path fill="#FFFFFF" d="M104.1,10.5l-0.4,0.8l-0.7-0.6l0.4-0.7L104.1,10.5L104.1,10.5z M106.5,13.2h-0.9c-0.1,0.5-0.2,1-0.4,1.6
		c-0.4,0.9-1.2,1.4-2.5,1.4c-0.5,0-0.9-0.1-1.2-0.3c-0.4-0.3-0.5-0.6-0.6-1.1c0-0.3,0.1-0.6,0.2-0.9c0.1-0.3,0.4-0.8,0.7-1.2
		l0.2,0.1c-0.3,0.5-0.5,0.9-0.5,1.1c0,0.4,0.2,0.7,0.5,0.9c0.3,0.2,0.6,0.3,1.1,0.3c0.5,0,0.9-0.1,1.3-0.2c0.5-0.2,0.7-0.5,0.7-1
		c0-0.3-0.1-0.5-0.2-0.8c-0.2-0.3-0.2-0.5-0.3-0.6c0-0.1,0.1-0.3,0.3-0.6c0.1-0.1,0.1-0.2,0.3-0.5c0.1,0.1,0.1,0.2,0.2,0.3
		c0.1,0.1,0.2,0.2,0.3,0.3c0,0,0.1,0,0.1,0h0.7V13.2L106.5,13.2z"/>
	<path fill="#FFFFFF" d="M104.5,16.5c0,0.2,0,0.3,0,0.4c0,0.1-0.1,0.1-0.2,0.2l-1.6,0.9c0-0.2,0-0.3,0.1-0.4c0-0.1,0.1-0.1,0.3-0.2
		L104.5,16.5L104.5,16.5z"/>
	<path fill="#FFFFFF" d="M100.1,11.6c0,0.4-0.1,0.9-0.3,1.3h-0.2c0-0.6,0-1.1-0.1-1.4c0,0,0-0.3-0.1-0.8c-0.1-0.3-0.2-0.9-0.3-1.5
		C99.1,9,99,8.8,99,8.6c0-0.1,0-0.3,0.1-0.5c0.1-0.1,0.3-0.3,0.5-0.6c0,0.5,0.1,1.2,0.2,2.2C100,10.3,100.1,11,100.1,11.6
		L100.1,11.6z"/>
	<path fill="#FFFFFF" d="M98,7.3c-0.3,0.3-0.4,0.6-0.4,0.9c0,0.2,0,0.5,0.1,0.9l0.2,1.2c0.1,0.5,0.1,0.8,0.1,1.1
		c0,0.5-0.1,1-0.4,1.3c-0.2,0.3-0.5,0.5-0.9,0.5h-0.4v-1.2h0.4c0.2,0,0.4,0,0.5-0.1c0.1-0.1,0.1-0.2,0.1-0.4c0-0.3,0-0.7-0.1-1.2
		l-0.3-1.6c-0.1-0.5-0.1-0.9-0.1-1.2c0-0.2,0-0.4,0.2-0.6c0.1-0.1,0.2-0.3,0.4-0.5c0.1,0.2,0.2,0.4,0.3,0.5C97.7,7,97.8,7.1,98,7.3
		L98,7.3z"/>
	<path fill="#FFFFFF" d="M96.4,13.2h-0.8c-0.1,0.7-0.3,1.3-0.5,1.9c-0.4,0.7-0.9,1.1-1.5,1.1c-0.4,0-1-0.2-1.6-0.6l0.1-0.1
		c0.3,0,0.5,0.1,0.6,0.1c0.8,0,1.7-0.6,2.6-1.9C95.1,13.3,95,13.1,95,13c-0.2-0.3-0.4-0.6-0.5-0.8l0.7-1c0.3,0.5,0.5,0.7,0.7,0.7
		h0.6V13.2L96.4,13.2z"/>
	<path fill="#FFFFFF" d="M95.1,5.2c0,0.2,0,0.3,0,0.3c0,0.1-0.1,0.2-0.2,0.2l-1.6,0.9c0-0.2,0-0.3,0.1-0.4c0-0.1,0.1-0.2,0.3-0.2
		L95.1,5.2L95.1,5.2z M95.2,6.7c0,0.2,0,0.4-0.1,0.6c-0.1,0.2-0.3,0.3-0.5,0.3c-0.1,0-0.2,0-0.4-0.1C94.1,7.8,93.9,8,93.6,8
		c-0.3,0-0.4-0.2-0.4-0.7c0-0.1,0-0.3,0.1-0.5l0.1,0c0,0.4,0.1,0.6,0.2,0.6c0.2,0,0.3-0.1,0.4-0.4c0.1-0.2,0.1-0.4,0.1-0.6l0.1,0
		C94.4,6.8,94.5,7,94.6,7c0.1,0,0.2-0.1,0.3-0.3c0-0.2,0.1-0.3,0.1-0.5l0.1-0.1C95.2,6.3,95.2,6.5,95.2,6.7L95.2,6.7z"/>
	<path fill="#FFFFFF" d="M91.6,10.3l-0.1,1l-0.4,0h-0.3c-0.1,0-0.2,0-0.4,0c-0.5,0.1-0.9,0.2-1.2,0.3c-0.2,0.1-0.6,0.4-1.2,0.8
		c-0.2,0.2-0.5,0.4-0.8,0.5c-0.2,0.1-0.3,0.1-0.5,0.1h-0.5v-1.2h0.5c0.5,0,1.2-0.2,2.1-0.6c-0.4-0.2-0.8-0.3-1.2-0.3
		c-0.3,0-0.6,0.1-1,0.2c0.1-0.5,0.2-0.8,0.4-1c0.2-0.3,0.5-0.5,0.9-0.5c0.3,0,0.6,0.1,1,0.3c0.5,0.2,0.9,0.3,1.1,0.3
		c0.2,0,0.5,0.1,0.9,0.1c0.1,0,0.2,0,0.3,0C91.4,10.3,91.5,10.3,91.6,10.3L91.6,10.3z M89.9,13.6l-0.4,0.8l-0.7-0.6l0.5-0.7
		L89.9,13.6L89.9,13.6z"/>
	<path fill="#FFFFFF" d="M91,14.6c0,0.2,0,0.3,0,0.4c0,0.1-0.1,0.1-0.2,0.2l-1.6,0.9c0-0.2,0-0.3,0.1-0.4c0-0.1,0.1-0.1,0.3-0.2
		L91,14.6L91,14.6z"/>
	<path fill="#FFFFFF" d="M86.6,13.2h-0.8c-0.4,0-0.6-0.2-0.8-0.7c-0.2,0.5-0.5,0.7-0.8,0.7h-0.5v-1.2h0.5c0.3,0,0.5,0,0.7-0.1
		s0.3-0.3,0.5-0.5l0,0c0.1,0.4,0.2,0.6,0.4,0.6h0.8V13.2L86.6,13.2z M86.2,14.1l-0.5,0.8l-0.7-0.5L84.7,15L84,14.5l0.4-0.7l0.7,0.5
		l0.4-0.7L86.2,14.1L86.2,14.1z"/>
	<path fill="#FFFFFF" d="M84.8,7.9C84.6,8,84.4,8,84.2,8c0-0.1-0.1-0.1,0-0.2c0.1,0,0.2-0.1,0.4-0.1c0.3-0.1,0.6-0.3,0.8-0.5
		c0-0.1-0.1-0.2-0.1-0.3c0-0.1-0.1-0.1-0.2-0.1c-0.1,0-0.2,0-0.4,0.1l0.2-0.6c0.2-0.1,0.3-0.1,0.4-0.1c0.1,0,0.3,0.1,0.4,0.1
		c0.1,0.1,0.2,0.2,0.2,0.2c0,0,0,0.1,0,0.3C86,7.3,85.6,7.6,84.8,7.9L84.8,7.9z"/>
	<path fill="#FFFFFF" d="M84.2,13.2h-0.8c-0.5,0-0.8-0.1-1-0.2l0,0.3c0,0.4,0,0.7-0.2,0.9c-0.1,0.2-0.3,0.3-0.5,0.3
		c-0.3,0-0.6-0.2-0.9-0.6c-0.2-0.4-0.3-0.7-0.3-1.1c-0.4,0.1-0.6,0.2-0.7,0.4c-0.1,0.1-0.1,0.2-0.1,0.3c0,0.2,0,0.5,0.1,1l0.3,1.6
		c0.1,0.4,0.1,0.6,0.1,0.7c0,0.1,0,0.2,0,0.3c0,0.1-0.1,0.1-0.2,0.3c0-0.1-0.1-0.4-0.2-0.9c-0.2-0.7-0.3-1.4-0.4-2
		c-0.1-0.4-0.1-0.8-0.1-1c0-0.5,0.1-0.9,0.3-1.2c0.2-0.3,0.5-0.6,0.9-0.8c0.3-0.2,0.5-0.4,0.6-0.6c0.5,0.4,0.8,0.7,1,0.8
		c0.3,0.2,0.8,0.3,1.2,0.3h0.8V13.2L84.2,13.2z"/>
	<path fill="#FFFFFF" d="M82.5,16.5c0,0.2,0,0.3,0,0.4c0,0.1-0.1,0.1-0.2,0.2L80.6,18c0-0.2,0-0.3,0.1-0.4s0.1-0.1,0.3-0.2
		L82.5,16.5L82.5,16.5z"/>
	<path fill="#FFFFFF" d="M74.4,11.3c0,0.6-0.1,1-0.4,1.4c-0.2,0.3-0.6,0.5-1,0.5h-0.6v-1.2H73c0.6,0,0.9-0.1,0.9-0.3
		c0,0-0.1-0.2-0.3-0.4c-0.1-0.1-0.1-0.2-0.1-0.3c0-0.1,0.1-0.3,0.3-0.7c0-0.1,0.1-0.3,0.3-0.6C74.2,10.3,74.4,10.9,74.4,11.3
		L74.4,11.3z M74.2,14.1l-0.4,0.8l-0.7-0.5l0.4-0.8L74.2,14.1L74.2,14.1z"/>
	<path fill="#FFFFFF" d="M74.6,16.5c0,0.2,0,0.3,0,0.4c0,0.1-0.1,0.1-0.2,0.2L72.7,18c0-0.2,0-0.3,0.1-0.4s0.1-0.1,0.3-0.2
		L74.6,16.5L74.6,16.5z"/>
	<path fill="#FFFFFF" d="M72.5,13.2h-0.8c-0.3,0-0.5-0.1-0.7-0.4c-0.1-0.2-0.2-0.4-0.3-0.8c-0.2,0.7-0.5,1-0.9,1
		c-0.3,0-0.5-0.2-0.7-0.7c-0.2,0.5-0.6,0.8-1.2,0.8c-0.5,0-0.8-0.2-1-0.7c-0.1,0.2-0.2,0.4-0.3,0.5c-0.1,0.1-0.3,0.2-0.4,0.2h-0.5
		v-1.2h0.5c0.3,0,0.5,0,0.7-0.1c0.2-0.1,0.3-0.3,0.5-0.5l0,0c0,0.2,0.1,0.4,0.2,0.5c0.1,0.1,0.2,0.1,0.4,0.1c0.3,0,0.6,0,0.8-0.1
		c0.3-0.1,0.6-0.4,0.7-0.7l0.1,0c0,0.4,0.2,0.6,0.5,0.7c0.3,0,0.5-0.2,0.6-0.7h0.1c0.1,0.6,0.4,0.8,0.9,0.8h0.8V13.2L72.5,13.2z"/>
	<path fill="#FFFFFF" d="M68.7,7.9C68.4,8,68.2,8,68.1,8c0-0.1-0.1-0.1,0-0.2c0.1,0,0.2-0.1,0.4-0.1c0.3-0.1,0.6-0.3,0.8-0.5
		c0-0.1-0.1-0.2-0.1-0.3c0-0.1-0.1-0.1-0.2-0.1c-0.1,0-0.2,0-0.4,0.1l0.2-0.6c0.2-0.1,0.3-0.1,0.4-0.1c0.1,0,0.3,0.1,0.4,0.1
		c0.1,0.1,0.2,0.2,0.2,0.2c0,0,0,0.1,0,0.3C69.8,7.3,69.4,7.6,68.7,7.9L68.7,7.9z"/>
	<path fill="#FFFFFF" d="M66.1,13.2h-0.8c-0.5,0-0.8-0.1-1-0.2l0,0.3c0,0.4,0,0.7-0.2,0.9c-0.1,0.2-0.3,0.3-0.5,0.3
		c-0.3,0-0.6-0.2-0.9-0.6c-0.2-0.4-0.3-0.7-0.3-1.1c-0.4,0.1-0.6,0.2-0.7,0.4c-0.1,0.1-0.1,0.2-0.1,0.3c0,0.2,0,0.5,0.1,1l0.3,1.6
		c0.1,0.4,0.1,0.6,0.1,0.7c0,0.1,0,0.2,0,0.3c0,0.1-0.1,0.1-0.2,0.3c0-0.1-0.1-0.4-0.2-0.9c-0.2-0.7-0.3-1.4-0.4-2
		c-0.1-0.4-0.1-0.8-0.1-1c0-0.5,0.1-0.9,0.3-1.2c0.2-0.3,0.5-0.6,0.9-0.8c0.3-0.2,0.5-0.4,0.6-0.6c0.5,0.4,0.8,0.7,1,0.8
		c0.3,0.2,0.8,0.3,1.2,0.3h0.8V13.2L66.1,13.2z"/>
	<path fill="#FFFFFF" d="M64.4,16.5c0,0.2,0,0.3,0,0.4c0,0.1-0.1,0.1-0.2,0.2L62.5,18c0-0.2,0-0.3,0.1-0.4s0.1-0.1,0.3-0.2
		L64.4,16.5L64.4,16.5z"/>
	<path fill="#FFFFFF" d="M59.6,11.6c0,0.4-0.1,0.9-0.3,1.3h-0.2c0-0.6,0-1.1-0.1-1.4c0,0,0-0.3-0.1-0.8c-0.1-0.3-0.1-0.9-0.3-1.5
		c0-0.2-0.1-0.4-0.1-0.6c0-0.1,0-0.3,0.1-0.5c0.1-0.1,0.3-0.3,0.5-0.6c0,0.5,0.1,1.2,0.2,2.2C59.5,10.3,59.6,11,59.6,11.6L59.6,11.6
		z"/>
	<path fill="#FFFFFF" d="M57.5,7.3C57.2,7.6,57,7.9,57,8.2c0,0.2,0,0.5,0.1,0.9l0.2,1.2c0.1,0.5,0.1,0.8,0.1,1.1
		c0,0.5-0.1,1-0.4,1.3c-0.2,0.3-0.5,0.5-0.9,0.5h-0.4v-1.2h0.4c0.2,0,0.4,0,0.5-0.1c0.1-0.1,0.1-0.2,0.1-0.4c0-0.3,0-0.7-0.1-1.2
		l-0.3-1.6c-0.1-0.5-0.1-0.9-0.1-1.2c0-0.2,0-0.4,0.2-0.6c0.1-0.1,0.2-0.3,0.4-0.5c0.1,0.2,0.2,0.4,0.3,0.5
		C57.2,7,57.3,7.1,57.5,7.3L57.5,7.3z"/>
	<path fill="#FFFFFF" d="M56.2,13.2h-0.8c-0.5,0-0.9-0.4-1-1.3c-0.2,0.9-0.6,1.3-1,1.3H53v-1.2h0.4c0.5,0,0.7-0.5,0.8-1.4
		c0-0.2,0-0.5-0.1-1L54,8.2c0-0.3,0-0.6,0-0.9c0-0.2,0-0.3,0-0.3c0-0.1,0.1-0.2,0.2-0.4c0.2,0.2,0.3,0.4,0.3,0.5
		c0.1,0.2,0.1,0.4,0.1,0.8c0,1.5,0.1,2.6,0.3,3.3c0.1,0.5,0.3,0.7,0.5,0.7h0.8V13.2L56.2,13.2z"/>
	<path fill="#FFFFFF" d="M54.4,3.9l-0.1,0.2c-0.1-0.4-0.2-0.6-0.3-0.7c-0.1-0.2-0.3-0.4-0.5-0.6L53.3,2c0.4,0.2,0.7,0.5,0.8,0.8
		C54.2,3,54.3,3.4,54.4,3.9L54.4,3.9z M55.3,4.7c0,0.2,0,0.4-0.1,0.6c-0.1,0.2-0.2,0.3-0.4,0.3c-0.1,0-0.2,0-0.4-0.1
		C54.2,5.8,54,6,53.8,6c-0.1,0-0.2-0.1-0.3-0.2c-0.1-0.1-0.1-0.3-0.1-0.4c0-0.1,0-0.3,0.1-0.6l0.1,0c0,0.4,0.1,0.6,0.3,0.6
		c0.3,0,0.4-0.3,0.4-0.9l0.1,0C54.5,4.8,54.6,5,54.8,5C54.9,5,55,4.9,55,4.7c0.1-0.2,0.1-0.3,0.1-0.5c0-0.1,0-0.1,0-0.2l0.1,0
		C55.3,4.3,55.3,4.5,55.3,4.7L55.3,4.7z"/>
	<path fill="#FFFFFF" d="M53.4,13.2h-0.8c-0.4,0-0.6-0.2-0.7-0.5c-0.1-0.2-0.1-0.5-0.2-0.9c-0.4,0.6-0.8,0.9-1,0.9
		c-0.2,0-0.4,0-0.5-0.1c-0.2-0.1-0.3-0.2-0.3-0.4c0-0.2,0.1-0.5,0.3-0.9c0.1-0.2,0.3-0.5,0.5-0.6c0.1-0.1,0.3-0.2,0.7-0.4
		c0-0.1,0-0.2-0.1-0.3c0-0.1-0.1-0.2-0.1-0.3c0-0.1,0-0.1,0.1-0.3c0.1-0.2,0.3-0.3,0.4-0.5c0,0,0.1,0.7,0.3,2c0,0.2,0.1,0.5,0.1,0.8
		c0.1,0.3,0.2,0.4,0.4,0.4h0.8V13.2L53.4,13.2z M51.5,11.3c0,0,0-0.2-0.1-0.4c0-0.1,0-0.2-0.1-0.4c-0.6,0.3-0.9,0.6-0.9,0.7
		c0,0.1,0.1,0.1,0.2,0.1c0.1,0,0.3,0.1,0.6,0.1C51.4,11.4,51.5,11.4,51.5,11.3L51.5,11.3z"/>
	<path fill="#FFFFFF" d="M52.3,14.3c0,0.2,0,0.3,0,0.4c0,0.1-0.1,0.1-0.2,0.2l-1.6,0.9c0-0.2,0-0.3,0.1-0.4c0-0.1,0.1-0.1,0.3-0.2
		L52.3,14.3L52.3,14.3z"/>
	<path fill="#FFFFFF" d="M47.7,11.6c0,0.4-0.1,0.9-0.3,1.3h-0.2c0-0.6,0-1.1-0.1-1.4c0,0,0-0.3-0.1-0.8c-0.1-0.3-0.2-0.9-0.3-1.5
		c0-0.2-0.1-0.4-0.1-0.6c0-0.1,0-0.3,0.1-0.5c0.1-0.1,0.3-0.3,0.5-0.6c0,0.5,0.1,1.2,0.2,2.2C47.7,10.3,47.7,11,47.7,11.6L47.7,11.6
		z"/>
	<path fill="#FFFFFF" d="M45.6,7.3c-0.3,0.3-0.4,0.6-0.4,0.9c0,0.2,0,0.5,0.1,0.9l0.2,1.2c0.1,0.5,0.1,0.8,0.1,1.1
		c0,0.5-0.1,1-0.4,1.3c-0.2,0.3-0.5,0.5-0.9,0.5h-0.4v-1.2h0.4c0.2,0,0.4,0,0.5-0.1c0.1-0.1,0.1-0.2,0.1-0.4c0-0.3,0-0.7-0.1-1.2
		l-0.3-1.6c-0.1-0.5-0.1-0.9-0.1-1.2c0-0.2,0-0.4,0.2-0.6c0.1-0.1,0.2-0.3,0.4-0.5c0.1,0.2,0.2,0.4,0.3,0.5
		C45.3,7,45.4,7.1,45.6,7.3L45.6,7.3z"/>
	<path fill="#FFFFFF" d="M44.1,13.2h-0.8c-0.1,0.7-0.3,1.3-0.5,1.9c-0.4,0.7-0.9,1.1-1.5,1.1c-0.4,0-1-0.2-1.6-0.6l0.1-0.1
		c0.3,0,0.5,0.1,0.6,0.1c0.8,0,1.7-0.6,2.6-1.9c-0.2-0.2-0.3-0.3-0.4-0.4c-0.2-0.3-0.4-0.6-0.5-0.8l0.7-1c0.3,0.5,0.5,0.7,0.7,0.7
		h0.6V13.2L44.1,13.2z"/>
	<path fill="#FFFFFF" d="M42.7,5.2c0,0.2,0,0.3,0,0.3c0,0.1-0.1,0.2-0.2,0.2l-1.6,0.9c0-0.2,0-0.3,0.1-0.4c0-0.1,0.1-0.2,0.3-0.2
		L42.7,5.2L42.7,5.2z M42.8,6.7c0,0.2,0,0.4-0.1,0.6c-0.1,0.2-0.3,0.3-0.5,0.3c-0.1,0-0.2,0-0.4-0.1C41.7,7.8,41.5,8,41.2,8
		c-0.3,0-0.4-0.2-0.4-0.7c0-0.1,0-0.3,0.1-0.5l0.1,0c0,0.4,0.1,0.6,0.2,0.6c0.2,0,0.3-0.1,0.4-0.4c0.1-0.2,0.1-0.4,0.1-0.6l0.1,0
		C42,6.8,42.1,7,42.2,7c0.1,0,0.2-0.1,0.3-0.3c0-0.2,0.1-0.3,0.1-0.5l0.1-0.1C42.8,6.3,42.8,6.5,42.8,6.7L42.8,6.7z"/>
	<path fill="#FFFFFF" d="M39.2,10.3l-0.1,1l-0.4,0h-0.3c-0.1,0-0.2,0-0.4,0c-0.5,0.1-0.9,0.2-1.2,0.3c-0.2,0.1-0.6,0.4-1.2,0.8
		c-0.2,0.2-0.5,0.4-0.8,0.5c-0.2,0.1-0.3,0.1-0.5,0.1H34v-1.2h0.5c0.5,0,1.2-0.2,2.1-0.6c-0.4-0.2-0.8-0.3-1.2-0.3
		c-0.3,0-0.6,0.1-1,0.2c0.1-0.5,0.2-0.8,0.4-1c0.2-0.3,0.5-0.5,0.9-0.5c0.3,0,0.6,0.1,1,0.3c0.5,0.2,0.9,0.3,1.1,0.3
		c0.2,0,0.5,0.1,0.9,0.1c0.1,0,0.2,0,0.3,0C39.1,10.3,39.2,10.3,39.2,10.3L39.2,10.3z"/>
	<path fill="#FFFFFF" d="M36.5,7.9C36.3,8,36.1,8,35.9,8c0-0.1-0.1-0.1,0-0.2c0.1,0,0.2-0.1,0.4-0.1c0.3-0.1,0.6-0.3,0.8-0.5
		C37.1,7,37,6.9,37,6.9c0-0.1-0.1-0.1-0.2-0.1c-0.1,0-0.2,0-0.4,0.1l0.2-0.6c0.2-0.1,0.3-0.1,0.4-0.1c0.1,0,0.3,0.1,0.4,0.1
		c0.1,0.1,0.2,0.2,0.2,0.2c0,0,0,0.1,0,0.3C37.7,7.3,37.3,7.6,36.5,7.9L36.5,7.9z"/>
	<path fill="#FFFFFF" d="M34.1,13.2h-0.8c-0.2,0-0.3,0-0.4-0.1c-0.1-0.1-0.2-0.1-0.3-0.3c-0.1,0.5-0.3,0.7-0.7,0.7
		c-0.4,0-0.9-0.4-1.5-1.1c-0.1,0.3-0.3,0.5-0.4,0.6c-0.1,0.1-0.3,0.2-0.4,0.2h-0.4v-1.2h0.4c0.4,0,0.8-0.3,1.1-0.9
		c0.1-0.2,0.2-0.4,0.3-0.5c0.1-0.2,0.3-0.2,0.5-0.2c0.2,0,0.4,0.2,0.6,0.5c0.1,0.2,0.3,0.4,0.5,0.6c0.2,0.3,0.5,0.4,0.7,0.4h0.8
		V13.2L34.1,13.2z M31.8,11.9c0-0.3,0-0.6-0.1-0.8c-0.1-0.2-0.2-0.3-0.3-0.3c-0.1,0-0.2,0.1-0.3,0.3c0,0.1-0.1,0.2-0.2,0.4
		c0.2,0.2,0.4,0.4,0.6,0.5c0.1,0.1,0.2,0.1,0.2,0.1C31.8,12.2,31.8,12.1,31.8,11.9L31.8,11.9z"/>
	<path fill="#FFFFFF" d="M30.1,8.8c0,0.1,0,0.2-0.1,0.3c0,0-0.1,0.1-0.2,0.2l0,0l0,0c0,0,0,0,0,0c0,0,0-0.1,0-0.1c0,0,0,0,0-0.1
		c0-0.2-0.1-0.6-0.2-1.3l-0.1-0.5c0-0.1,0.1-0.1,0.1-0.2c0,0,0.1-0.1,0.2-0.2c0,0.2,0.1,0.4,0.1,0.6c0,0.2,0.1,0.4,0.1,0.7
		C30,8.4,30.1,8.6,30.1,8.8L30.1,8.8z"/>
	<path fill="#FFFFFF" d="M27.2,10.5l-0.4,0.8l-0.7-0.6l0.4-0.7L27.2,10.5L27.2,10.5z M29.6,13.2h-0.9c-0.1,0.5-0.2,1-0.4,1.6
		c-0.4,0.9-1.2,1.4-2.5,1.4c-0.5,0-0.9-0.1-1.2-0.3c-0.4-0.3-0.5-0.6-0.6-1.1c0-0.3,0.1-0.6,0.2-0.9c0.1-0.3,0.4-0.8,0.7-1.2
		l0.2,0.1c-0.3,0.5-0.5,0.9-0.5,1.1c0,0.4,0.2,0.7,0.5,0.9c0.3,0.2,0.6,0.3,1.1,0.3c0.5,0,0.9-0.1,1.3-0.2c0.5-0.2,0.7-0.5,0.7-1
		c0-0.3-0.1-0.5-0.2-0.8c-0.2-0.3-0.3-0.5-0.3-0.6c0-0.1,0.1-0.3,0.3-0.6c0.1-0.1,0.1-0.2,0.3-0.5c0.1,0.1,0.1,0.2,0.2,0.3
		c0.1,0.1,0.2,0.2,0.3,0.3c0,0,0.1,0,0.1,0h0.7V13.2L29.6,13.2z"/>
	<path fill="#FFFFFF" d="M27.6,16.5c0,0.2,0,0.3,0,0.4c0,0.1-0.1,0.1-0.2,0.2L25.7,18c0-0.2,0-0.3,0.1-0.4c0-0.1,0.1-0.1,0.3-0.2
		L27.6,16.5L27.6,16.5z"/>
	<path fill="#FFFFFF" d="M22.6,11.6c0,0.4-0.1,0.9-0.3,1.3h-0.2c0-0.6,0-1.1-0.1-1.4c0,0,0-0.3-0.1-0.8c-0.1-0.3-0.1-0.9-0.3-1.5
		c0-0.2-0.1-0.4-0.1-0.6c0-0.1,0-0.3,0.1-0.5C21.8,8,22,7.8,22.3,7.5c0,0.5,0.1,1.2,0.2,2.2C22.6,10.3,22.6,11,22.6,11.6L22.6,11.6z
		"/>
	<path fill="#FFFFFF" d="M20.5,7.3c-0.3,0.3-0.4,0.6-0.4,0.9c0,0.2,0,0.5,0.1,0.9l0.2,1.2c0.1,0.5,0.1,0.8,0.1,1.1
		c0,0.5-0.1,1-0.4,1.3c-0.2,0.3-0.5,0.5-0.9,0.5h-0.4v-1.2h0.4c0.2,0,0.4,0,0.5-0.1c0.1-0.1,0.1-0.2,0.1-0.4c0-0.3,0-0.7-0.1-1.2
		l-0.3-1.6c-0.1-0.5-0.1-0.9-0.1-1.2c0-0.2,0-0.4,0.2-0.6c0.1-0.1,0.2-0.3,0.4-0.5c0.1,0.2,0.2,0.4,0.3,0.5
		C20.3,7,20.4,7.1,20.5,7.3L20.5,7.3z"/>
	<path fill="#FFFFFF" d="M19,13.2h-0.8c-0.1,0.7-0.3,1.3-0.5,1.9c-0.4,0.7-0.9,1.1-1.5,1.1c-0.4,0-1-0.2-1.6-0.6l0.1-0.1
		c0.3,0,0.5,0.1,0.6,0.1c0.8,0,1.7-0.6,2.6-1.9c-0.2-0.2-0.3-0.3-0.4-0.4c-0.2-0.3-0.4-0.6-0.5-0.8l0.7-1c0.3,0.5,0.5,0.7,0.7,0.7
		H19V13.2L19,13.2z"/>
	<path fill="#FFFFFF" d="M17.7,5.2c0,0.2,0,0.3,0,0.3c0,0.1-0.1,0.2-0.2,0.2l-1.6,0.9c0-0.2,0-0.3,0.1-0.4c0-0.1,0.1-0.2,0.3-0.2
		L17.7,5.2L17.7,5.2z M17.7,6.7c0,0.2,0,0.4-0.1,0.6c-0.1,0.2-0.3,0.3-0.5,0.3c-0.1,0-0.2,0-0.4-0.1C16.6,7.8,16.4,8,16.2,8
		c-0.3,0-0.4-0.2-0.4-0.7c0-0.1,0-0.3,0.1-0.5l0.1,0c0,0.4,0.1,0.6,0.2,0.6c0.2,0,0.3-0.1,0.4-0.4c0.1-0.2,0.1-0.4,0.1-0.6l0.1,0
		C16.9,6.8,17,7,17.2,7c0.1,0,0.2-0.1,0.3-0.3c0-0.2,0.1-0.3,0.1-0.5l0.1-0.1C17.7,6.3,17.7,6.5,17.7,6.7L17.7,6.7z"/>
	<path fill="#FFFFFF" d="M14.2,10.3l-0.1,1l-0.4,0h-0.3c-0.1,0-0.2,0-0.4,0c-0.5,0.1-0.9,0.2-1.2,0.3c-0.2,0.1-0.6,0.4-1.2,0.8
		c-0.2,0.2-0.5,0.4-0.8,0.5c-0.2,0.1-0.3,0.1-0.5,0.1H8.9v-1.2h0.5c0.5,0,1.2-0.2,2.1-0.6c-0.4-0.2-0.8-0.3-1.2-0.3
		c-0.3,0-0.6,0.1-1,0.2c0.1-0.5,0.2-0.8,0.4-1c0.2-0.3,0.5-0.5,0.9-0.5c0.3,0,0.6,0.1,1,0.3c0.5,0.2,0.9,0.3,1.1,0.3
		c0.2,0,0.5,0.1,0.9,0.1c0.1,0,0.2,0,0.3,0C14,10.3,14.1,10.3,14.2,10.3L14.2,10.3z"/>
	<path fill="#FFFFFF" d="M12.8,14.3c0,0.2,0,0.3,0,0.4c0,0.1-0.1,0.1-0.2,0.2l-1.6,0.9c0-0.2,0-0.3,0.1-0.4c0-0.1,0.1-0.1,0.3-0.2
		L12.8,14.3L12.8,14.3z"/>
	<path fill="#FFFFFF" d="M9.2,13.2H8.4c-0.4,0-0.6-0.2-0.8-0.7c-0.2,0.5-0.5,0.7-0.8,0.7H6.3v-1.2h0.5c0.3,0,0.5,0,0.7-0.1
		s0.3-0.3,0.5-0.5l0,0c0.1,0.4,0.2,0.6,0.4,0.6h0.8V13.2L9.2,13.2z M8.8,14.1l-0.5,0.8l-0.7-0.5L7.3,15l-0.8-0.6L7,13.7l0.7,0.5
		l0.4-0.7L8.8,14.1L8.8,14.1z"/>
	<path fill="#FFFFFF" d="M7.4,7.9C7.1,8,6.9,8,6.8,8c0-0.1,0-0.1,0-0.2c0.1,0,0.2-0.1,0.4-0.1C7.4,7.5,7.7,7.3,8,7.1
		c0-0.1-0.1-0.2-0.1-0.3c0-0.1-0.1-0.1-0.2-0.1c-0.1,0-0.2,0-0.4,0.1l0.2-0.6c0.2-0.1,0.3-0.1,0.4-0.1c0.1,0,0.3,0.1,0.4,0.1
		c0.1,0.1,0.2,0.2,0.2,0.2c0,0,0,0.1,0,0.3C8.5,7.3,8.1,7.6,7.4,7.9L7.4,7.9z"/>
	<path fill="#FFFFFF" d="M6.8,13.2H6c-0.5,0-0.8-0.1-1-0.2l0,0.3c0,0.4,0,0.7-0.2,0.9c-0.1,0.2-0.3,0.3-0.5,0.3
		c-0.3,0-0.6-0.2-0.9-0.6c-0.2-0.4-0.3-0.7-0.3-1.1c-0.4,0.1-0.6,0.2-0.7,0.4c-0.1,0.1-0.1,0.2-0.1,0.3c0,0.2,0,0.5,0.1,1l0.3,1.6
		c0.1,0.4,0.1,0.6,0.1,0.7c0,0.1,0,0.2,0,0.3c0,0.1-0.1,0.1-0.2,0.3c0-0.1-0.1-0.4-0.2-0.9c-0.2-0.7-0.3-1.4-0.4-2
		C2,14.1,2,13.7,2,13.5c0-0.5,0.1-0.9,0.3-1.2c0.2-0.3,0.5-0.6,0.9-0.8c0.3-0.2,0.5-0.4,0.6-0.6c0.5,0.4,0.8,0.7,1,0.8
		c0.3,0.2,0.8,0.3,1.2,0.3h0.8V13.2L6.8,13.2z"/>
</g>
</svg>
